<svg width="32" height="32" viewBox="0 0 32 32" fill="none" xmlns="http://www.w3.org/2000/svg">
<rect width="32" height="32" rx="16" fill="#690007"/>
<path fill-rule="evenodd" clip-rule="evenodd" d="M9.5 16C9.5 12.4101 12.4101 9.5 16 9.5C19.5899 9.5 22.5 12.4101 22.5 16C22.5 19.5899 19.5899 22.5 16 22.5C12.4101 22.5 9.5 19.5899 9.5 16ZM18.4069 14.7906C18.5674 14.5659 18.5153 14.2536 18.2906 14.0931C18.0659 13.9326 17.7536 13.9847 17.5931 14.2094L15.4362 17.2291L14.3536 16.1464C14.1583 15.9512 13.8417 15.9512 13.6464 16.1464C13.4512 16.3417 13.4512 16.6583 13.6464 16.8536L15.1464 18.3536C15.2504 18.4575 15.3948 18.5104 15.5412 18.4983C15.6877 18.4862 15.8214 18.4102 15.9069 18.2906L18.4069 14.7906Z" fill="#FBF0DC"/>
</svg>
