<svg width="30" height="30" viewBox="0 0 30 30" fill="none" xmlns="http://www.w3.org/2000/svg">
<path d="M5.18604 12V10C5.18604 7 7.18603 5 10.186 5H20.186C23.186 5 25.186 7 25.186 10V12" stroke="#1E1E1E" stroke-width="1.5" stroke-miterlimit="10" stroke-linecap="round" stroke-linejoin="round"/>
<path d="M5.18604 18V20C5.18604 23 7.18603 25 10.186 25H20.186C23.186 25 25.186 23 25.186 20V18" stroke="#1E1E1E" stroke-width="1.5" stroke-miterlimit="10" stroke-linecap="round" stroke-linejoin="round"/>
<path d="M9.88574 12.26L15.1857 15.33L20.4457 12.28" stroke="#1E1E1E" stroke-width="1.5" stroke-linecap="round" stroke-linejoin="round"/>
<path d="M15.186 20.7702V15.3202" stroke="#1E1E1E" stroke-width="1.5" stroke-linecap="round" stroke-linejoin="round"/>
<path d="M13.9458 9.28994L10.7458 11.07C10.0258 11.47 9.42578 12.48 9.42578 13.31V16.7C9.42578 17.53 10.0158 18.54 10.7458 18.94L13.9458 20.7199C14.6258 21.0999 15.7458 21.0999 16.4358 20.7199L19.6358 18.94C20.3558 18.54 20.9558 17.53 20.9558 16.7V13.31C20.9558 12.48 20.3658 11.47 19.6358 11.07L16.4358 9.28994C15.7458 8.89994 14.6258 8.89994 13.9458 9.28994Z" stroke="#1E1E1E" stroke-width="1.5" stroke-linecap="round" stroke-linejoin="round"/>
</svg>
