<svg width="63" height="63" viewBox="0 0 63 63" fill="none" xmlns="http://www.w3.org/2000/svg">
<path d="M62.6666 31.5C62.6666 48.6208 48.7875 62.5 31.6666 62.5C14.5458 62.5 0.666626 48.6208 0.666626 31.5C0.666626 14.3792 14.5458 0.5 31.6666 0.5C48.7875 0.5 62.6666 14.3792 62.6666 31.5ZM7.58547 31.5C7.58547 44.7997 18.367 55.5812 31.6666 55.5812C44.9663 55.5812 55.7478 44.7997 55.7478 31.5C55.7478 18.2003 44.9663 7.41885 31.6666 7.41885C18.367 7.41885 7.58547 18.2003 7.58547 31.5Z" fill="#FAFAFA"/>
<path d="M4.12605 31.5C2.21546 31.5 0.646668 29.9464 0.859436 28.0477C1.40962 23.1379 3.12775 18.4129 5.89107 14.2773C9.29739 9.1794 14.1389 5.20605 19.8034 2.85973C25.468 0.513417 31.701 -0.100486 37.7144 1.09566C43.7278 2.2918 49.2515 5.24427 53.5869 9.57969C57.9224 13.9151 60.8748 19.4388 62.071 25.4522C63.2671 31.4656 62.6532 37.6987 60.3069 43.3632C57.9606 49.0277 53.9872 53.8692 48.8893 57.2756C44.7537 60.0389 40.0287 61.757 35.1189 62.3072C33.2202 62.52 31.6666 60.9512 31.6666 59.0406C31.6666 57.13 33.2233 55.6066 35.1142 55.3331C38.653 54.8212 42.0484 53.5253 45.0454 51.5228C49.0055 48.8767 52.0921 45.1157 53.9147 40.7155C55.7374 36.3152 56.2142 31.4733 55.2851 26.802C54.3559 22.1307 52.0624 17.8399 48.6946 14.4721C45.3268 11.1042 41.0359 8.81074 36.3646 7.88156C31.6933 6.95238 26.8514 7.42927 22.4512 9.25191C18.0509 11.0746 14.29 14.1611 11.6439 18.1212C9.64136 21.1182 8.34543 24.5137 7.83352 28.0524C7.55999 29.9433 6.03664 31.5 4.12605 31.5Z" fill="#A67C62"/>
<g clip-path="url(#clip0_223_53633)">
<path d="M31.6651 29.4653C30.7475 28.6183 29.1317 28.0292 27.6466 27.9923M23.6281 37.5023C24.4913 38.5648 26.0965 39.1708 27.6466 39.2222M27.6466 27.9923C25.8796 27.9484 24.2978 28.6863 24.2978 30.7017C24.2978 34.4111 31.6651 32.5564 31.6651 36.2658C31.6651 38.3815 29.7043 39.2905 27.6466 39.2222M27.6466 27.9923V25.7559M27.6466 39.2222V41.8299" stroke="#A67C62" stroke-width="1.72222" stroke-linecap="round" stroke-linejoin="round"/>
<path d="M32.6219 31.4971H40.2762M40.2762 31.4971L36.6022 27.6699M40.2762 31.4971L36.6022 35.3242" stroke="#A67C62" stroke-width="1.72222" stroke-linecap="round" stroke-linejoin="round"/>
</g>
<defs>
<clipPath id="clip0_223_53633">
<rect width="22.963" height="22.963" fill="white" transform="translate(20.1836 20.0156)"/>
</clipPath>
</defs>
</svg>
