<svg width="12" height="13" viewBox="0 0 12 13" fill="none" xmlns="http://www.w3.org/2000/svg">
<path d="M1.58496 4.21997L5.99995 6.77496L10.3849 4.23495" stroke="white" stroke-width="0.75" stroke-linecap="round" stroke-linejoin="round"/>
<path d="M6 11.305V6.77002" stroke="white" stroke-width="0.75" stroke-linecap="round" stroke-linejoin="round"/>
<path d="M4.96506 1.74L2.29506 3.22502C1.69006 3.56002 1.19507 4.40001 1.19507 5.09001V7.91502C1.19507 8.60502 1.69006 9.44501 2.29506 9.78001L4.96506 11.265C5.53506 11.58 6.47005 11.58 7.04005 11.265L9.71007 9.78001C10.3151 9.44501 10.8101 8.60502 10.8101 7.91502V5.09001C10.8101 4.40001 10.3151 3.56002 9.71007 3.22502L7.04005 1.74C6.46505 1.42 5.53506 1.42 4.96506 1.74Z" stroke="white" stroke-width="0.75" stroke-linecap="round" stroke-linejoin="round"/>
<path d="M8.49988 7.12006V5.29007L3.75488 2.55005" stroke="white" stroke-width="0.75" stroke-linecap="round" stroke-linejoin="round"/>
</svg>
