<svg width="18" height="19" viewBox="0 0 18 19" fill="none" xmlns="http://www.w3.org/2000/svg">
<path d="M1.5 13.2949H9" stroke="#292D32" stroke-width="1.125" stroke-miterlimit="10" stroke-linecap="round" stroke-linejoin="round"/>
<path d="M3.16498 10.625H7.33502C8.67002 10.625 9 10.955 9 12.275V15.3575C9 16.6775 8.67002 17.0075 7.33502 17.0075H3.16498C1.82998 17.0075 1.5 16.6775 1.5 15.3575V12.275C1.5 10.955 1.82998 10.625 3.16498 10.625Z" stroke="#292D32" stroke-width="1.125" stroke-linecap="round" stroke-linejoin="round"/>
<path d="M16.5 11.75C16.5 14.6525 14.1525 17 11.25 17L12.0375 15.6875" stroke="#292D32" stroke-width="1.125" stroke-linecap="round" stroke-linejoin="round"/>
<path d="M1.5 7.25C1.5 4.3475 3.8475 2 6.75 2L5.96251 3.3125" stroke="#292D32" stroke-width="1.125" stroke-linecap="round" stroke-linejoin="round"/>
<path d="M13.875 8.75C15.739 8.75 17.25 7.23896 17.25 5.375C17.25 3.51104 15.739 2 13.875 2C12.011 2 10.5 3.51104 10.5 5.375C10.5 7.23896 12.011 8.75 13.875 8.75Z" stroke="#292D32" stroke-width="1.125" stroke-linecap="round" stroke-linejoin="round"/>
</svg>
