<svg width="12" height="13" viewBox="0 0 12 13" fill="none" xmlns="http://www.w3.org/2000/svg">
<path d="M1 5V4C1 2.5 2 1.5 3.5 1.5H8.5C10 1.5 11 2.5 11 4V5" stroke="white" stroke-width="0.75" stroke-miterlimit="10" stroke-linecap="round" stroke-linejoin="round"/>
<path d="M1 8V9C1 10.5 2 11.5 3.5 11.5H8.5C10 11.5 11 10.5 11 9V8" stroke="white" stroke-width="0.75" stroke-miterlimit="10" stroke-linecap="round" stroke-linejoin="round"/>
<path d="M3.3501 5.12988L6.0001 6.66489L8.6301 5.13989" stroke="white" stroke-width="0.75" stroke-linecap="round" stroke-linejoin="round"/>
<path d="M6 9.38516V6.66016" stroke="white" stroke-width="0.75" stroke-linecap="round" stroke-linejoin="round"/>
<path d="M5.38011 3.64503L3.78011 4.53504C3.42011 4.73504 3.12012 5.24004 3.12012 5.65504V7.35005C3.12012 7.76505 3.41511 8.27004 3.78011 8.47004L5.38011 9.36003C5.72011 9.55003 6.28011 9.55003 6.62511 9.36003L8.22511 8.47004C8.58511 8.27004 8.88512 7.76505 8.88512 7.35005V5.65504C8.88512 5.24004 8.59011 4.73504 8.22511 4.53504L6.62511 3.64503C6.28011 3.45003 5.72011 3.45003 5.38011 3.64503Z" stroke="white" stroke-width="0.75" stroke-linecap="round" stroke-linejoin="round"/>
</svg>
