<svg width="13" height="13" viewBox="0 0 13 13" fill="none" xmlns="http://www.w3.org/2000/svg">
<path fill-rule="evenodd" clip-rule="evenodd" d="M6.45652 1.89355C6.58657 1.89355 6.71074 1.9477 6.79923 2.043L8.8258 4.22546C9.00155 4.41473 8.99059 4.71064 8.80132 4.88639C8.61205 5.06214 8.31614 5.05118 8.14038 4.86191L6.45652 3.04852L4.77266 4.86191C4.59691 5.05118 4.301 5.06214 4.11173 4.88639C3.92245 4.71064 3.9115 4.41473 4.08725 4.22546L6.11382 2.043C6.2023 1.9477 6.32648 1.89355 6.45652 1.89355ZM4.11173 7.63056C4.301 7.45481 4.59691 7.46577 4.77266 7.65504L6.45652 9.46843L8.14038 7.65504C8.31614 7.46577 8.61205 7.45481 8.80132 7.63056C8.99059 7.80631 9.00155 8.10222 8.8258 8.29149L6.79923 10.4739C6.71074 10.5692 6.58656 10.6234 6.45652 10.6234C6.32648 10.6234 6.2023 10.5692 6.11381 10.4739L4.08725 8.29149C3.9115 8.10222 3.92245 7.80631 4.11173 7.63056Z" fill="#666666"/>
</svg>
