<svg width="25" height="24" viewBox="0 0 25 24" fill="none" xmlns="http://www.w3.org/2000/svg">
<path d="M22.3716 15C22.3716 18.87 19.2416 22 15.3716 22L16.4216 20.25" stroke="#1E1E1E" stroke-width="1.5" stroke-linecap="round" stroke-linejoin="round"/>
<path d="M2.37158 9C2.37158 5.13 5.50158 2 9.37158 2L8.32158 3.75" stroke="#1E1E1E" stroke-width="1.5" stroke-linecap="round" stroke-linejoin="round"/>
<path d="M14.0718 4.44995L18.0518 6.74994L21.9918 4.45996" stroke="#1E1E1E" stroke-width="1.5" stroke-linecap="round" stroke-linejoin="round"/>
<path d="M18.0518 10.82V6.73999" stroke="#1E1E1E" stroke-width="1.5" stroke-linecap="round" stroke-linejoin="round"/>
<path d="M17.1117 2.21L14.7117 3.53996C14.1717 3.83996 13.7217 4.59995 13.7217 5.21995V7.75999C13.7217 8.37999 14.1617 9.13998 14.7117 9.43998L17.1117 10.77C17.6217 11.06 18.4617 11.06 18.9817 10.77L21.3817 9.43998C21.9217 9.13998 22.3717 8.37999 22.3717 7.75999V5.21995C22.3717 4.59995 21.9317 3.83996 21.3817 3.53996L18.9817 2.21C18.4717 1.93 17.6317 1.93 17.1117 2.21Z" stroke="#1E1E1E" stroke-width="1.5" stroke-linecap="round" stroke-linejoin="round"/>
<path d="M2.72168 15.45L6.69168 17.7499L10.6417 15.46" stroke="#1E1E1E" stroke-width="1.5" stroke-linecap="round" stroke-linejoin="round"/>
<path d="M6.69165 21.82V17.74" stroke="#1E1E1E" stroke-width="1.5" stroke-linecap="round" stroke-linejoin="round"/>
<path d="M5.76158 13.21L3.36159 14.54C2.82159 14.84 2.37158 15.5999 2.37158 16.2199V18.76C2.37158 19.38 2.81159 20.14 3.36159 20.44L5.76158 21.77C6.27158 22.06 7.11158 22.06 7.63158 21.77L10.0316 20.44C10.5716 20.14 11.0216 19.38 11.0216 18.76V16.2199C11.0216 15.5999 10.5816 14.84 10.0316 14.54L7.63158 13.21C7.11158 12.93 6.27158 12.93 5.76158 13.21Z" stroke="#1E1E1E" stroke-width="1.5" stroke-linecap="round" stroke-linejoin="round"/>
</svg>
