<svg width="13" height="13" viewBox="0 0 13 13" fill="none" xmlns="http://www.w3.org/2000/svg">
<path d="M7.43716 1.90094L8.39049 3.8076C8.52049 4.07302 8.86716 4.3276 9.15966 4.37635L10.8876 4.66344C11.9926 4.8476 12.2526 5.64927 11.4563 6.4401L10.113 7.78344C9.88549 8.01094 9.76091 8.44969 9.83132 8.76385L10.2159 10.4268C10.5192 11.743 9.82049 12.2522 8.65591 11.5643L7.03632 10.6055C6.74382 10.4322 6.26174 10.4322 5.96382 10.6055L4.34424 11.5643C3.18507 12.2522 2.48091 11.7376 2.78424 10.4268L3.16882 8.76385C3.23924 8.44969 3.11466 8.01094 2.88716 7.78344L1.54382 6.4401C0.752989 5.64927 1.00757 4.8476 2.11257 4.66344L3.84049 4.37635C4.12757 4.3276 4.47424 4.07302 4.60424 3.8076L5.55757 1.90094C6.07757 0.866354 6.92257 0.866354 7.43716 1.90094Z" stroke="#1E1E1E" stroke-opacity="0.2" stroke-width="0.5" stroke-linecap="round" stroke-linejoin="round"/>
</svg>
