<svg width="19" height="18" viewBox="0 0 19 18" fill="none" xmlns="http://www.w3.org/2000/svg">
<path d="M8.65988 16.9877C8.29988 16.9877 7.94738 16.8977 7.61738 16.7177C6.95738 16.3502 6.55988 15.6827 6.55988 14.9327V10.9577C6.55988 10.5827 6.31238 10.0202 6.07988 9.73519L3.27488 6.7652C2.80238 6.2927 2.44238 5.4827 2.44238 4.8752V3.1502C2.44238 1.9502 3.34988 1.0127 4.50488 1.0127H14.4049C15.5449 1.0127 16.4674 1.9352 16.4674 3.0752V4.7252C16.4674 5.5127 15.9949 6.4052 15.5524 6.84769L12.3049 9.72019C11.9899 9.98269 11.7424 10.5602 11.7424 11.0252V14.2502C11.7424 14.9177 11.3224 15.6902 10.7974 16.0052L9.76238 16.6727C9.42488 16.8827 9.04238 16.9877 8.65988 16.9877ZM4.50488 2.1377C3.97988 2.1377 3.56738 2.5802 3.56738 3.1502V4.8752C3.56738 5.1527 3.79238 5.69269 4.07738 5.97769L6.93488 8.98519C7.31738 9.45769 7.69238 10.2452 7.69238 10.9502V14.9252C7.69238 15.4127 8.02988 15.6527 8.17238 15.7277C8.48738 15.9002 8.86988 15.9002 9.16238 15.7202L10.2049 15.0527C10.4149 14.9252 10.6249 14.5202 10.6249 14.2502V11.0252C10.6249 10.2227 11.0149 9.33769 11.5774 8.86519L14.7874 6.02269C15.0424 5.76769 15.3499 5.16019 15.3499 4.71769V3.0752C15.3499 2.5577 14.9299 2.1377 14.4124 2.1377H4.50488Z" fill="#111111"/>
<path d="M4.95435 8.06245C4.84935 8.06245 4.75185 8.03245 4.65435 7.97995C4.39185 7.81495 4.30935 7.46245 4.47435 7.19995L8.17185 1.27495C8.33685 1.01245 8.68185 0.929953 8.94435 1.09495C9.20685 1.25995 9.28935 1.60495 9.12435 1.86745L5.42685 7.79245C5.32185 7.96495 5.14185 8.06245 4.95435 8.06245Z" fill="#111111"/>
</svg>
