<svg width="16" height="16" viewBox="0 0 16 16" fill="none" xmlns="http://www.w3.org/2000/svg">
<path d="M5.6709 14.25H9.4209C12.5459 14.25 13.7959 13 13.7959 9.875V6.125C13.7959 3 12.5459 1.75 9.4209 1.75H5.6709C2.5459 1.75 1.2959 3 1.2959 6.125V9.875C1.2959 13 2.5459 14.25 5.6709 14.25Z" stroke="#222222" stroke-width="0.9375" stroke-linecap="round" stroke-linejoin="round"/>
<path d="M6.2959 11.125H8.7959C9.82715 11.125 10.6709 10.2812 10.6709 9.25V6.75C10.6709 5.71875 9.82715 4.875 8.7959 4.875H6.2959C5.26465 4.875 4.4209 5.71875 4.4209 6.75V9.25C4.4209 10.2812 5.26465 11.125 6.2959 11.125Z" stroke="#222222" stroke-width="0.9375" stroke-linecap="round" stroke-linejoin="round"/>
<path d="M7.5459 4.875V11.125" stroke="#222222" stroke-width="0.9375" stroke-linecap="round" stroke-linejoin="round"/>
<path d="M4.4209 8H10.6709" stroke="#222222" stroke-width="0.9375" stroke-linecap="round" stroke-linejoin="round"/>
</svg>
