<svg width="16" height="16" viewBox="0 0 16 16" fill="none" xmlns="http://www.w3.org/2000/svg">
<path d="M13.6368 5.68014C12.9502 2.659 10.3149 1.29883 7.99998 1.29883C7.99998 1.29883 7.99998 1.29883 7.99344 1.29883C5.68508 1.29883 3.04321 2.65246 2.35658 5.67361C1.59149 9.04787 3.6579 11.9055 5.52813 13.7038C6.2213 14.3708 7.11064 14.7043 7.99998 14.7043C8.88932 14.7043 9.77866 14.3708 10.4653 13.7038C12.3355 11.9055 14.4019 9.05441 13.6368 5.68014ZM7.99998 8.95632C6.86215 8.95632 5.94011 8.03429 5.94011 6.89645C5.94011 5.75862 6.86215 4.83658 7.99998 4.83658C9.13781 4.83658 10.0599 5.75862 10.0599 6.89645C10.0599 8.03429 9.13781 8.95632 7.99998 8.95632Z" fill="#690007"/>
</svg>
