<svg width="18" height="19" viewBox="0 0 18 19" fill="none" xmlns="http://www.w3.org/2000/svg">
<path d="M12.75 14.3223H9.75L6.41249 16.5423C5.91749 16.8723 5.25 16.5198 5.25 15.9198V14.3223C3 14.3223 1.5 12.8223 1.5 10.5723V6.07227C1.5 3.82227 3 2.32227 5.25 2.32227H12.75C15 2.32227 16.5 3.82227 16.5 6.07227V10.5723C16.5 12.8223 15 14.3223 12.75 14.3223Z" stroke="#292D32" stroke-width="1.125" stroke-miterlimit="10" stroke-linecap="round" stroke-linejoin="round"/>
<path d="M9.00011 9.02002V8.86255C9.00011 8.35255 9.31513 8.08254 9.63013 7.86504C9.93763 7.65504 10.2451 7.38505 10.2451 6.89005C10.2451 6.20005 9.69011 5.64502 9.00011 5.64502C8.31011 5.64502 7.75513 6.20005 7.75513 6.89005" stroke="#292D32" stroke-width="1.125" stroke-linecap="round" stroke-linejoin="round"/>
<path d="M8.99662 10.8125H9.00337" stroke="#292D32" stroke-width="1.125" stroke-linecap="round" stroke-linejoin="round"/>
</svg>
