<svg width="22" height="22" viewBox="0 0 22 22" fill="none" xmlns="http://www.w3.org/2000/svg">
<path d="M8.25842 1.9834H13.6031C15.9705 1.9834 17.5543 2.49118 18.5543 3.49121C19.5542 4.49119 20.0621 6.07428 20.0621 8.44141V13.7861C20.0621 16.1535 19.5544 17.7373 18.5543 18.7373C17.5543 19.7373 15.9705 20.2451 13.6031 20.2451H8.25842C5.8913 20.2451 4.30821 19.7372 3.30823 18.7373C2.3082 17.7373 1.80042 16.1535 1.80042 13.7861V8.44141C1.80047 6.07422 2.30825 4.49119 3.30823 3.49121C4.3082 2.49123 5.89124 1.98345 8.25842 1.9834ZM8.25842 2.42871C6.1739 2.42876 4.62774 2.79474 3.61975 3.80273C2.61176 4.81073 2.24577 6.35688 2.24573 8.44141V13.7861C2.24573 15.8706 2.61201 17.4167 3.61975 18.4248C4.62774 19.4328 6.1739 19.7998 8.25842 19.7998H13.6031C15.6879 19.7998 17.2338 19.4329 18.2418 18.4248C19.2499 17.4168 19.6168 15.8709 19.6168 13.7861V8.44141C19.6168 6.35688 19.2498 4.81073 18.2418 3.80273C17.2338 2.795 15.6876 2.42871 13.6031 2.42871H8.25842Z" fill="#101323" stroke="#4B5563" stroke-width="0.8908"/>
<path d="M10.9312 12.0052C10.4324 12.0052 10.0404 11.6044 10.0404 11.1144C10.0404 10.6245 10.4413 10.2236 10.9312 10.2236C11.4211 10.2236 11.822 10.6245 11.822 11.1144C11.822 11.6044 11.4301 12.0052 10.9312 12.0052Z" fill="#101323"/>
<path d="M14.4943 12.0052C13.9955 12.0052 13.6035 11.6044 13.6035 11.1144C13.6035 10.6245 14.0044 10.2236 14.4943 10.2236C14.9843 10.2236 15.3851 10.6245 15.3851 11.1144C15.3851 11.6044 14.9932 12.0052 14.4943 12.0052Z" fill="#101323"/>
<path d="M7.36797 12.0052C6.86912 12.0052 6.47717 11.6044 6.47717 11.1144C6.47717 10.6245 6.87803 10.2236 7.36797 10.2236C7.85791 10.2236 8.25877 10.6245 8.25877 11.1144C8.25877 11.6044 7.86682 12.0052 7.36797 12.0052Z" fill="#101323"/>
</svg>
