<svg width="63" height="63" viewBox="0 0 63 63" fill="none" xmlns="http://www.w3.org/2000/svg">
<path d="M62.3334 31.5C62.3334 48.6208 48.4542 62.5 31.3334 62.5C14.2125 62.5 0.333374 48.6208 0.333374 31.5C0.333374 14.3792 14.2125 0.5 31.3334 0.5C48.4542 0.5 62.3334 14.3792 62.3334 31.5ZM7.25222 31.5C7.25222 44.7997 18.0337 55.5812 31.3334 55.5812C44.633 55.5812 55.4145 44.7997 55.4145 31.5C55.4145 18.2003 44.633 7.41885 31.3334 7.41885C18.0337 7.41885 7.25222 18.2003 7.25222 31.5Z" fill="#FAFAFA"/>
<path d="M3.7928 31.5C1.88221 31.5 0.313416 29.9464 0.526184 28.0477C1.07637 23.1379 2.7945 18.4129 5.55782 14.2773C8.96414 9.1794 13.8057 5.20605 19.4702 2.85973C25.1347 0.513417 31.3678 -0.100486 37.3812 1.09566C43.3946 2.2918 48.9183 5.24427 53.2537 9.57969C57.5891 13.9151 60.5416 19.4388 61.7377 25.4522C62.9339 31.4656 62.32 37.6987 59.9736 43.3632C57.6273 49.0277 53.654 53.8692 48.556 57.2756C44.4204 60.0389 39.6954 61.757 34.7857 62.3072C32.887 62.52 31.3334 60.9512 31.3334 59.0406C31.3334 57.13 32.8901 55.6066 34.781 55.3331C38.3197 54.8212 41.7151 53.5253 44.7121 51.5228C48.6723 48.8767 51.7588 45.1157 53.5815 40.7155C55.4041 36.3152 55.881 31.4733 54.9518 26.802C54.0226 22.1307 51.7291 17.8399 48.3613 14.4721C44.9935 11.1042 40.7027 8.81074 36.0314 7.88156C31.3601 6.95238 26.5182 7.42927 22.1179 9.25191C17.7177 11.0746 13.9567 14.1611 11.3106 18.1212C9.3081 21.1182 8.01218 24.5137 7.50027 28.0524C7.22673 29.9433 5.70338 31.5 3.7928 31.5Z" fill="#95AFB7"/>
<g clip-path="url(#clip0_225_55038)">
<path d="M31.3318 29.4653C30.4143 28.6183 28.7984 28.0292 27.3133 27.9923M23.2948 37.5023C24.1581 38.5648 25.7632 39.1708 27.3133 39.2222M27.3133 27.9923C25.5463 27.9484 23.9646 28.6863 23.9646 30.7017C23.9646 34.4111 31.3318 32.5564 31.3318 36.2658C31.3318 38.3815 29.371 39.2905 27.3133 39.2222M27.3133 27.9923V25.7559M27.3133 39.2222V41.8299" stroke="#95AFB7" stroke-width="1.72222" stroke-linecap="round" stroke-linejoin="round"/>
<path d="M32.2887 31.4971H39.943M39.943 31.4971L36.2689 27.6699M39.943 31.4971L36.2689 35.3242" stroke="#95AFB7" stroke-width="1.72222" stroke-linecap="round" stroke-linejoin="round"/>
</g>
<defs>
<clipPath id="clip0_225_55038">
<rect width="22.963" height="22.963" fill="white" transform="translate(19.8503 20.0156)"/>
</clipPath>
</defs>
</svg>
