<svg width="36" height="36" viewBox="0 0 36 36" fill="none" xmlns="http://www.w3.org/2000/svg">
<rect width="36" height="36" rx="8" fill="#FBF0DC"/>
<path d="M23.2667 18.6249H20.5C18.425 18.6249 17.375 17.4499 17.375 15.1249V12.7332C17.375 11.8832 17.475 10.6666 18.3583 9.99989C19.1 9.44989 20.1667 9.40822 21.7417 9.86655C23.8083 10.4666 25.5333 12.1916 26.1333 14.2582C26.5917 15.8249 26.55 16.8999 26 17.6332C25.3333 18.5249 24.1167 18.6249 23.2667 18.6249ZM19.9 10.7999C19.5583 10.7999 19.2917 10.8666 19.1167 10.9999C18.7917 11.2416 18.6333 11.8082 18.6333 12.7332V15.1332C18.6333 16.9999 19.35 17.3832 20.5083 17.3832H23.275C24.1917 17.3832 24.7583 17.2249 25.0083 16.8999C25.3 16.5166 25.275 15.7499 24.95 14.6249C24.4667 12.9832 23.05 11.5582 21.4083 11.0832C20.7917 10.8916 20.2917 10.7999 19.9 10.7999Z" fill="#690007"/>
<path d="M17.2253 26.9583C16.7837 26.9583 16.3337 26.9249 15.8837 26.8499C12.4753 26.2999 9.70033 23.5333 9.15033 20.1249C8.442 15.7416 11.267 11.6083 15.592 10.7249C15.9337 10.6583 16.2587 10.8749 16.3337 11.2083C16.4003 11.5499 16.1837 11.8749 15.8503 11.9499C12.192 12.6999 9.792 16.1999 10.4003 19.9249C10.867 22.8083 13.2087 25.1499 16.092 25.6166C19.8337 26.2166 23.3253 23.8083 24.067 20.1333C24.1337 19.7916 24.467 19.5749 24.8003 19.6416C25.142 19.7083 25.3587 20.0416 25.292 20.3749C24.5003 24.2666 21.1003 26.9583 17.2253 26.9583Z" fill="#690007"/>
</svg>
