<svg width="18" height="19" viewBox="0 0 18 19" fill="none" xmlns="http://www.w3.org/2000/svg">
<path d="M6.87017 8.6525C6.79517 8.645 6.70517 8.645 6.62267 8.6525C4.83767 8.5925 3.42017 7.13 3.42017 5.33C3.42017 3.4925 4.90517 2 6.75017 2C8.58767 2 10.0802 3.4925 10.0802 5.33C10.0727 7.13 8.65517 8.5925 6.87017 8.6525Z" stroke="#292D32" stroke-width="1.125" stroke-linecap="round" stroke-linejoin="round"/>
<path d="M12.3075 3.5C13.7625 3.5 14.9325 4.6775 14.9325 6.125C14.9325 7.5425 13.8075 8.6975 12.405 8.75C12.345 8.7425 12.2775 8.7425 12.21 8.75" stroke="#292D32" stroke-width="1.125" stroke-linecap="round" stroke-linejoin="round"/>
<path d="M3.12004 11.42C1.30504 12.635 1.30504 14.615 3.12004 15.8225C5.18254 17.2025 8.56504 17.2025 10.6275 15.8225C12.4425 14.6075 12.4425 12.6275 10.6275 11.42C8.57254 10.0475 5.19004 10.0475 3.12004 11.42Z" stroke="#292D32" stroke-width="1.125" stroke-linecap="round" stroke-linejoin="round"/>
<path d="M13.7551 15.5C14.2951 15.3875 14.8051 15.17 15.2251 14.8475C16.3951 13.97 16.3951 12.5225 15.2251 11.645C14.8126 11.33 14.3101 11.12 13.7776 11" stroke="#292D32" stroke-width="1.125" stroke-linecap="round" stroke-linejoin="round"/>
</svg>
