<svg width="19" height="18" viewBox="0 0 19 18" fill="none" xmlns="http://www.w3.org/2000/svg">
<path d="M7.05 12.231L9.75 9.531L12.45 12.231L12.981 11.7L10.281 9L12.981 6.3L12.45 5.769L9.75 8.469L7.05 5.769L6.519 6.3L9.219 9L6.519 11.7L7.05 12.231ZM9.75225 15.75C8.81925 15.75 7.94175 15.573 7.11975 15.219C6.29825 14.8645 5.5835 14.3835 4.9755 13.776C4.3675 13.1685 3.88625 12.4545 3.53175 11.634C3.17725 10.8135 3 9.93625 3 9.00225C3 8.06825 3.17725 7.19075 3.53175 6.36975C3.88575 5.54825 4.366 4.8335 4.9725 4.2255C5.579 3.6175 6.29325 3.13625 7.11525 2.78175C7.93725 2.42725 8.81475 2.25 9.74775 2.25C10.6807 2.25 11.5583 2.42725 12.3802 2.78175C13.2017 3.13575 13.9165 3.61625 14.5245 4.22325C15.1325 4.83025 15.6138 5.5445 15.9683 6.366C16.3228 7.1875 16.5 8.06475 16.5 8.99775C16.5 9.93075 16.323 10.8083 15.969 11.6302C15.615 12.4522 15.134 13.167 14.526 13.7745C13.918 14.382 13.204 14.8633 12.384 15.2183C11.564 15.5732 10.6868 15.7505 9.75225 15.75ZM9.75 15C11.425 15 12.8437 14.4187 14.0062 13.2562C15.1687 12.0937 15.75 10.675 15.75 9C15.75 7.325 15.1687 5.90625 14.0062 4.74375C12.8437 3.58125 11.425 3 9.75 3C8.075 3 6.65625 3.58125 5.49375 4.74375C4.33125 5.90625 3.75 7.325 3.75 9C3.75 10.675 4.33125 12.0937 5.49375 13.2562C6.65625 14.4187 8.075 15 9.75 15Z" fill="#690007"/>
</svg>
