<svg width="18" height="18" viewBox="0 0 18 18" fill="none" xmlns="http://www.w3.org/2000/svg">
<path d="M8.625 16.3125C4.3875 16.3125 0.9375 12.8625 0.9375 8.625C0.9375 4.3875 4.3875 0.9375 8.625 0.9375C12.8625 0.9375 16.3125 4.3875 16.3125 8.625C16.3125 12.8625 12.8625 16.3125 8.625 16.3125ZM8.625 2.0625C5.0025 2.0625 2.0625 5.01 2.0625 8.625C2.0625 12.24 5.0025 15.1875 8.625 15.1875C12.2475 15.1875 15.1875 12.24 15.1875 8.625C15.1875 5.01 12.2475 2.0625 8.625 2.0625Z" fill="#FBF0DC"/>
<path d="M16.5003 17.0626C16.3578 17.0626 16.2153 17.0101 16.1028 16.8976L14.6028 15.3976C14.3853 15.1801 14.3853 14.8201 14.6028 14.6026C14.8203 14.3851 15.1803 14.3851 15.3978 14.6026L16.8978 16.1026C17.1153 16.3201 17.1153 16.6801 16.8978 16.8976C16.7853 17.0101 16.6428 17.0626 16.5003 17.0626Z" fill="#FBF0DC"/>
</svg>
