<svg width="41" height="16" viewBox="0 0 41 16" fill="none" xmlns="http://www.w3.org/2000/svg">
<g clip-path="url(#clip0_6_55028)">
<path d="M12.202 6.59375C12.6993 6.59375 13.1762 6.39621 13.5279 6.04458C13.8795 5.69294 14.077 5.21603 14.077 4.71875V4.25C14.077 3.75272 13.8795 3.27581 13.5279 2.92417C13.1762 2.57254 12.6993 2.375 12.202 2.375H11.7333C11.236 2.375 10.7591 2.57254 10.4075 2.92417C10.0558 3.27581 9.85828 3.75272 9.85828 4.25V5.65625H7.04578V4.25C7.04578 3.75272 6.84823 3.27581 6.4966 2.92417C6.14497 2.57254 5.66806 2.375 5.17078 2.375H4.70203C4.20475 2.375 3.72783 2.57254 3.3762 2.92417C3.02457 3.27581 2.82703 3.75272 2.82703 4.25V4.71875C2.82703 5.21603 3.02457 5.69294 3.3762 6.04458C3.72783 6.39621 4.20475 6.59375 4.70203 6.59375H6.10828V9.40625H4.70203C4.20475 9.40625 3.72783 9.60379 3.3762 9.95543C3.02457 10.3071 2.82703 10.784 2.82703 11.2812V11.75C2.82703 12.2473 3.02457 12.7242 3.3762 13.0758C3.72783 13.4275 4.20475 13.625 4.70203 13.625H5.17078C5.66806 13.625 6.14497 13.4275 6.4966 13.0758C6.84823 12.7242 7.04578 12.2473 7.04578 11.75V10.3438H9.85828V11.75C9.85828 12.2473 10.0558 12.7242 10.4075 13.0758C10.7591 13.4275 11.236 13.625 11.7333 13.625H12.202C12.6993 13.625 13.1762 13.4275 13.5279 13.0758C13.8795 12.7242 14.077 12.2473 14.077 11.75V11.2812C14.077 10.784 13.8795 10.3071 13.5279 9.95543C13.1762 9.60379 12.6993 9.40625 12.202 9.40625H10.7958V6.59375H12.202ZM10.7958 4.25C10.7958 4.00136 10.8945 3.7629 11.0704 3.58709C11.2462 3.41127 11.4846 3.3125 11.7333 3.3125H12.202C12.4507 3.3125 12.6891 3.41127 12.8649 3.58709C13.0408 3.7629 13.1395 4.00136 13.1395 4.25V4.71875C13.1395 4.96739 13.0408 5.20585 12.8649 5.38166C12.6891 5.55748 12.4507 5.65625 12.202 5.65625H10.7958V4.25ZM4.70203 5.65625C4.45339 5.65625 4.21493 5.55748 4.03911 5.38166C3.8633 5.20585 3.76453 4.96739 3.76453 4.71875V4.25C3.76453 4.00136 3.8633 3.7629 4.03911 3.58709C4.21493 3.41127 4.45339 3.3125 4.70203 3.3125H5.17078C5.41942 3.3125 5.65787 3.41127 5.83369 3.58709C6.0095 3.7629 6.10828 4.00136 6.10828 4.25V5.65625H4.70203ZM6.10828 11.75C6.10828 11.9986 6.0095 12.2371 5.83369 12.4129C5.65787 12.5887 5.41942 12.6875 5.17078 12.6875H4.70203C4.45339 12.6875 4.21493 12.5887 4.03911 12.4129C3.8633 12.2371 3.76453 11.9986 3.76453 11.75V11.2812C3.76453 11.0326 3.8633 10.7942 4.03911 10.6183C4.21493 10.4425 4.45339 10.3438 4.70203 10.3438H6.10828V11.75ZM9.85828 9.40625H7.04578V6.59375H9.85828V9.40625ZM10.7958 10.3438H12.202C12.4507 10.3438 12.6891 10.4425 12.8649 10.6183C13.0408 10.7942 13.1395 11.0326 13.1395 11.2812V11.75C13.1395 11.9986 13.0408 12.2371 12.8649 12.4129C12.6891 12.5887 12.4507 12.6875 12.202 12.6875H11.7333C11.4846 12.6875 11.2462 12.5887 11.0704 12.4129C10.8945 12.2371 10.7958 11.9986 10.7958 11.75V10.3438Z" fill="#FBF0DC"/>
</g>
<path d="M24.384 7.59211H27V8.40811H24.384V11.0361H23.568V8.40811H20.952V7.59211H23.568V4.96411H24.384V7.59211Z" fill="#FBF0DC"/>
<path d="M34.91 8.303L39.974 12.5H38.057L33.77 8.867V12.5H32.51V3.92H33.77V7.823L37.877 3.92H39.644L34.91 8.303Z" fill="#FBF0DC"/>
<defs>
<clipPath id="clip0_6_55028">
<rect width="15" height="15" fill="white" transform="translate(0.952026 0.5)"/>
</clipPath>
</defs>
</svg>
