<svg width="13" height="13" viewBox="0 0 13 13" fill="none" xmlns="http://www.w3.org/2000/svg">
<path d="M1.80884 6.44867V8.74421C1.80884 11.0398 2.7291 11.96 5.02465 11.96H7.78032C10.0759 11.96 10.9961 11.0398 10.9961 8.74421V6.44867" stroke="#6E7175" stroke-width="0.766886" stroke-linecap="round" stroke-linejoin="round"/>
<path d="M6.40626 6.84731C7.34186 6.84731 8.03206 6.08554 7.94003 5.14994L7.6026 1.73474H5.21503L4.87249 5.14994C4.78046 6.08554 5.47066 6.84731 6.40626 6.84731Z" stroke="#6E7175" stroke-width="0.766886" stroke-linecap="round" stroke-linejoin="round"/>
<path d="M9.63217 6.84731C10.6649 6.84731 11.4216 6.00885 11.3193 4.98123L11.1762 3.57527C10.9921 2.246 10.4809 1.73474 9.14137 1.73474H7.58203L7.93991 5.31865C8.02682 6.16223 8.7886 6.84731 9.63217 6.84731Z" stroke="#6E7175" stroke-width="0.766886" stroke-linecap="round" stroke-linejoin="round"/>
<path d="M3.15295 6.84731C3.99652 6.84731 4.7583 6.16223 4.8401 5.31865L4.95257 4.18878L5.19798 1.73474H3.63864C2.29915 1.73474 1.78789 2.246 1.60384 3.57527L1.4658 4.98123C1.36355 6.00885 2.12021 6.84731 3.15295 6.84731Z" stroke="#6E7175" stroke-width="0.766886" stroke-linecap="round" stroke-linejoin="round"/>
<path d="M6.40632 9.40356C5.55252 9.40356 5.12817 9.82791 5.12817 10.6817V11.9599H7.68446V10.6817C7.68446 9.82791 7.26012 9.40356 6.40632 9.40356Z" stroke="#6E7175" stroke-width="0.766886" stroke-linecap="round" stroke-linejoin="round"/>
</svg>
