<svg width="18" height="19" viewBox="0 0 18 19" fill="none" xmlns="http://www.w3.org/2000/svg">
<path d="M11.5425 4.4075L12.6 6.52249C12.7425 6.81499 13.125 7.09249 13.4475 7.15249L15.36 7.46749C16.5825 7.66999 16.8675 8.55499 15.99 9.43999L14.4975 10.9325C14.25 11.18 14.1075 11.6675 14.19 12.02L14.6175 13.865C14.955 15.32 14.175 15.89 12.8925 15.125L11.1 14.06C10.7775 13.865 10.2375 13.865 9.91496 14.06L8.12245 15.125C6.83995 15.8825 6.05996 15.32 6.39746 13.865L6.82497 12.02C6.90747 11.675 6.76496 11.1875 6.51746 10.9325L5.02497 9.43999C4.14747 8.56249 4.43247 7.67749 5.65497 7.46749L7.56746 7.15249C7.88996 7.09999 8.27246 6.81499 8.41496 6.52249L9.47247 4.4075C10.035 3.26 10.965 3.26 11.5425 4.4075Z" stroke="#292D32" stroke-width="1.125" stroke-linecap="round" stroke-linejoin="round"/>
<path d="M6 4.25H1.5" stroke="#292D32" stroke-width="1.125" stroke-linecap="round" stroke-linejoin="round"/>
<path d="M3.75 14.75H1.5" stroke="#292D32" stroke-width="1.125" stroke-linecap="round" stroke-linejoin="round"/>
<path d="M2.25 9.5H1.5" stroke="#292D32" stroke-width="1.125" stroke-linecap="round" stroke-linejoin="round"/>
</svg>
