<svg width="13" height="14" viewBox="0 0 13 14" fill="none" xmlns="http://www.w3.org/2000/svg">
<path d="M9.07637 2.20972H3.8944C1.9097 2.20972 1.35523 2.68646 1.30859 4.54161C2.30871 4.54161 3.1171 5.35518 3.1171 6.3553C3.1171 7.35542 2.30871 8.16381 1.30859 8.16899C1.35523 10.0241 1.9097 10.5009 3.8944 10.5009H9.07637C11.1492 10.5009 11.6674 9.98268 11.6674 7.90989V4.8007C11.6674 2.72791 11.1492 2.20972 9.07637 2.20972Z" stroke="#6E7175" stroke-width="0.777296" stroke-linecap="round" stroke-linejoin="round"/>
<path d="M4.93091 2.20972V4.02341" stroke="#6E7175" stroke-width="0.777296" stroke-linecap="round" stroke-linejoin="round"/>
<path d="M4.93091 8.68713V10.5008" stroke="#6E7175" stroke-width="0.777296" stroke-linecap="round" stroke-linejoin="round"/>
<path d="M8.05535 4.97156L8.37663 5.6193C8.40772 5.68149 8.46991 5.72812 8.53727 5.73849L9.25239 5.84213C9.42857 5.86804 9.50112 6.08568 9.37157 6.21005L8.85337 6.7127C8.80155 6.75934 8.78083 6.83188 8.79119 6.90443L8.91556 7.61436C8.94665 7.79055 8.7601 7.92528 8.60464 7.84237L7.96726 7.50554C7.90507 7.47445 7.82734 7.47445 7.76516 7.50554L7.12778 7.84237C6.96714 7.92528 6.78577 7.79055 6.81686 7.61436L6.94123 6.90443C6.95159 6.83188 6.93086 6.76452 6.87904 6.7127L6.36603 6.21005C6.23648 6.08568 6.30902 5.86804 6.48521 5.84213L7.20032 5.73849C7.27287 5.72812 7.32987 5.68667 7.36097 5.6193L7.67707 4.97156C7.74961 4.81091 7.97762 4.81091 8.05535 4.97156Z" stroke="#6E7175" stroke-width="0.777296" stroke-linecap="round" stroke-linejoin="round"/>
</svg>
