<svg width="14" height="14" viewBox="0 0 14 14" fill="none" xmlns="http://www.w3.org/2000/svg">
<g clip-path="url(#clip0_621_42890)">
<path d="M5.67115 6.65501C5.27757 6.65501 4.89282 6.77172 4.56557 6.99038C4.23831 7.20905 3.98325 7.51984 3.83263 7.88347C3.68201 8.24709 3.64261 8.64721 3.71939 9.03324C3.79618 9.41926 3.9857 9.77384 4.26401 10.0521C4.54232 10.3305 4.8969 10.52 5.28292 10.5968C5.66895 10.6736 6.06907 10.6341 6.43269 10.4835C6.79632 10.3329 7.10711 10.0778 7.32578 9.75059C7.54444 9.42334 7.66115 9.03859 7.66115 8.64501V3.36501C7.96915 4.68601 8.85615 5.60701 10.3192 5.60701" stroke="#690007" stroke-linecap="round" stroke-linejoin="round"/>
<path d="M0.96 10.269C1.03907 10.9726 1.35435 11.6286 1.85437 12.1299C2.35439 12.6312 3.0096 12.9481 3.713 13.029C4.783 13.148 5.88 13.25 7 13.25C8.12 13.25 9.218 13.148 10.287 13.028C10.9904 12.9471 11.6456 12.6302 12.1456 12.1289C12.6456 11.6276 12.9609 10.9716 13.04 10.268C13.154 9.205 13.25 8.113 13.25 7C13.25 5.887 13.154 4.795 13.04 3.731C12.9609 3.02739 12.6456 2.37138 12.1456 1.87009C11.6456 1.3688 10.9904 1.05185 10.287 0.971C9.217 0.853 8.12 0.75 7 0.75C5.88 0.75 4.782 0.852 3.713 0.972C3.0096 1.05285 2.35439 1.3698 1.85437 1.87109C1.35435 2.37238 1.03907 3.02839 0.96 3.732C0.846 4.794 0.75 5.886 0.75 7C0.75 8.114 0.846 9.205 0.96 10.269Z" stroke="#690007" stroke-linecap="round" stroke-linejoin="round"/>
</g>
<defs>
<clipPath id="clip0_621_42890">
<rect width="14" height="14" fill="white"/>
</clipPath>
</defs>
</svg>
