<svg width="62" height="63" viewBox="0 0 62 63" fill="none" xmlns="http://www.w3.org/2000/svg">
<path d="M62 31.5C62 48.6208 48.1208 62.5 31 62.5C13.8792 62.5 0 48.6208 0 31.5C0 14.3792 13.8792 0.5 31 0.5C48.1208 0.5 62 14.3792 62 31.5ZM6.91885 31.5C6.91885 44.7997 17.7003 55.5812 31 55.5812C44.2997 55.5812 55.0812 44.7997 55.0812 31.5C55.0812 18.2003 44.2997 7.41885 31 7.41885C17.7003 7.41885 6.91885 18.2003 6.91885 31.5Z" fill="#FAFAFA"/>
<path d="M3.45942 31.5C1.54884 31.5 -0.0199584 29.9464 0.19281 28.0477C0.742996 23.1379 2.46112 18.4129 5.22444 14.2773C8.63077 9.1794 13.4723 5.20605 19.1368 2.85973C24.8013 0.513417 31.0344 -0.100486 37.0478 1.09566C43.0612 2.2918 48.5849 5.24427 52.9203 9.57969C57.2557 13.9151 60.2082 19.4388 61.4043 25.4522C62.6005 31.4656 61.9866 37.6987 59.6403 43.3632C57.2939 49.0277 53.3206 53.8692 48.2227 57.2756C44.0871 60.0389 39.3621 61.757 34.4523 62.3072C32.5536 62.52 31 60.9512 31 59.0406C31 57.13 32.5567 55.6066 34.4476 55.3331C37.9863 54.8212 41.3818 53.5253 44.3788 51.5228C48.3389 48.8767 51.4254 45.1157 53.2481 40.7155C55.0707 36.3152 55.5476 31.4733 54.6184 26.802C53.6893 22.1307 51.3958 17.8399 48.028 14.4721C44.6601 11.1042 40.3693 8.81074 35.698 7.88156C31.0267 6.95238 26.1848 7.42927 21.7845 9.25191C17.3843 11.0746 13.6233 14.1611 10.9773 18.1212C8.97473 21.1182 7.67881 24.5137 7.1669 28.0524C6.89336 29.9433 5.37001 31.5 3.45942 31.5Z" fill="#ED5846"/>
<path d="M26.2161 34.3706C26.7445 34.3706 27.1729 33.9422 27.1729 33.4138C27.1729 32.8854 26.7445 32.457 26.2161 32.457C25.6876 32.457 25.2593 32.8854 25.2593 33.4138C25.2593 33.9422 25.6876 34.3706 26.2161 34.3706Z" fill="#ED5846" stroke="#ED5846" stroke-width="1.72222" stroke-linecap="round" stroke-linejoin="round"/>
<path d="M21.4321 28.6279V25.4897C21.4321 25.1092 21.7405 24.8008 22.121 24.8008H39.879C40.2594 24.8008 40.5679 25.1092 40.5679 25.4897V28.6279M21.4321 28.6279V37.507C21.4321 37.8874 21.7405 38.1958 22.121 38.1958H39.879C40.2594 38.1958 40.5679 37.8874 40.5679 37.507V28.6279M21.4321 28.6279H40.5679" stroke="#ED5846" stroke-width="1.72222" stroke-linecap="round" stroke-linejoin="round"/>
</svg>
