<svg width="24" height="25" viewBox="0 0 24 25" fill="none" xmlns="http://www.w3.org/2000/svg">
<rect width="23.3423" height="23.3423" rx="3.07135" transform="matrix(-1 0 0 1 24 0.673828)" fill="#690007" fill-opacity="0.06"/>
<path fill-rule="evenodd" clip-rule="evenodd" d="M15.94 7.65104V6.92882C15.94 6.13107 15.2933 5.48438 14.4955 5.48438H10.1622C9.36445 5.48438 8.71775 6.13107 8.71775 6.92882V7.65104H6.55108C6.15221 7.65104 5.82886 7.97439 5.82886 8.37326C5.82886 8.77214 6.15221 9.09549 6.55108 9.09549H7.2733V17.0399C7.2733 18.2365 8.24335 19.2066 9.43997 19.2066H15.2177C16.4144 19.2066 17.3844 18.2365 17.3844 17.0399V9.09549H18.1066C18.5055 9.09549 18.8289 8.77214 18.8289 8.37326C18.8289 7.97439 18.5055 7.65104 18.1066 7.65104H15.94ZM14.4955 6.92882H10.1622V7.65104H14.4955V6.92882ZM15.94 9.09549H8.71775V17.0399C8.71775 17.4388 9.0411 17.7622 9.43997 17.7622H15.2177C15.6166 17.7622 15.94 17.4388 15.94 17.0399V9.09549Z" fill="#690007"/>
<path d="M10.1622 10.5399H11.6066V16.3177H10.1622V10.5399Z" fill="#690007"/>
<path d="M13.0511 10.5399H14.4955V16.3177H13.0511V10.5399Z" fill="#690007"/>
</svg>
