<svg width="47" height="47" viewBox="0 0 47 47" fill="none" xmlns="http://www.w3.org/2000/svg">
<rect x="3.5" y="3.5" width="40" height="40" rx="20" fill="#F2F4F7"/>
<rect x="3.5" y="3.5" width="40" height="40" rx="20" stroke="#F9FAFB" stroke-width="6"/>
<g clip-path="url(#clip0_642_19203)">
<path d="M26.8335 26.8332L23.5002 23.4999M23.5002 23.4999L20.1669 26.8332M23.5002 23.4999V30.9999M30.4919 28.8249C31.3047 28.3818 31.9467 27.6806 32.3168 26.8321C32.6868 25.9835 32.7637 25.0359 32.5354 24.1388C32.307 23.2417 31.7865 22.4462 31.0558 21.8778C30.3251 21.3094 29.4259 21.0005 28.5002 20.9999H27.4502C27.198 20.0243 26.7278 19.1185 26.0752 18.3507C25.4225 17.5829 24.6042 16.9731 23.682 16.5671C22.7597 16.161 21.7573 15.9694 20.7503 16.0065C19.7433 16.0436 18.7578 16.3085 17.8679 16.7813C16.9779 17.2541 16.2068 17.9225 15.6124 18.7362C15.018 19.55 14.6158 20.4879 14.436 21.4794C14.2563 22.4709 14.3036 23.4903 14.5746 24.461C14.8455 25.4316 15.3329 26.3281 16.0002 27.0832" stroke="#475467" stroke-width="1.66667" stroke-linecap="round" stroke-linejoin="round"/>
</g>
<defs>
<clipPath id="clip0_642_19203">
<rect width="20" height="20" fill="white" transform="translate(13.5 13.5)"/>
</clipPath>
</defs>
</svg>
