<svg width="25" height="24" viewBox="0 0 25 24" fill="none" xmlns="http://www.w3.org/2000/svg">
<path d="M12.9275 12C15.6889 12 17.9275 9.76142 17.9275 7C17.9275 4.23858 15.6889 2 12.9275 2C10.1661 2 7.92749 4.23858 7.92749 7C7.92749 9.76142 10.1661 12 12.9275 12Z" stroke="#292D32" stroke-width="1.5" stroke-linecap="round" stroke-linejoin="round"/>
<path d="M20.1375 15.74L16.5975 19.2801C16.4575 19.4201 16.3275 19.68 16.2975 19.87L16.1075 21.22C16.0375 21.71 16.3775 22.05 16.8675 21.98L18.2175 21.79C18.4075 21.76 18.6775 21.63 18.8075 21.49L22.3475 17.95C22.9575 17.34 23.2475 16.63 22.3475 15.73C21.4575 14.84 20.7475 15.13 20.1375 15.74Z" stroke="#292D32" stroke-width="1.5" stroke-miterlimit="10" stroke-linecap="round" stroke-linejoin="round"/>
<path d="M19.6274 16.25C19.9274 17.33 20.7674 18.17 21.8474 18.47" stroke="#292D32" stroke-width="1.5" stroke-miterlimit="10" stroke-linecap="round" stroke-linejoin="round"/>
<path d="M4.3374 22C4.3374 18.13 8.18743 15 12.9274 15C13.9674 15 14.9674 15.15 15.8974 15.43" stroke="#292D32" stroke-width="1.5" stroke-linecap="round" stroke-linejoin="round"/>
</svg>
