<svg width="36" height="36" viewBox="0 0 36 36" fill="none" xmlns="http://www.w3.org/2000/svg">
<rect width="36" height="36" rx="8" fill="#FBF0DC"/>
<path d="M15.633 17.6834C15.608 17.6834 15.5913 17.6834 15.5663 17.6834C15.5247 17.6751 15.4663 17.6751 15.4163 17.6834C12.9997 17.6084 11.1747 15.7084 11.1747 13.3667C11.1747 10.9834 13.1163 9.04175 15.4997 9.04175C17.883 9.04175 19.8247 10.9834 19.8247 13.3667C19.8163 15.7084 17.983 17.6084 15.658 17.6834C15.6497 17.6834 15.6413 17.6834 15.633 17.6834ZM15.4997 10.2917C13.808 10.2917 12.4247 11.6751 12.4247 13.3667C12.4247 15.0334 13.7247 16.3751 15.383 16.4334C15.433 16.4251 15.5413 16.4251 15.6497 16.4334C17.283 16.3584 18.5663 15.0167 18.5747 13.3667C18.5747 11.6751 17.1913 10.2917 15.4997 10.2917Z" fill="#690007"/>
<path d="M21.783 17.7916C21.758 17.7916 21.733 17.7916 21.708 17.7833C21.3663 17.8166 21.0163 17.5749 20.983 17.2333C20.9496 16.8916 21.158 16.5833 21.4996 16.5416C21.5996 16.5333 21.708 16.5333 21.7996 16.5333C23.0163 16.4666 23.9663 15.4666 23.9663 14.2416C23.9663 12.9749 22.9413 11.9499 21.6746 11.9499C21.333 11.9583 21.0496 11.6749 21.0496 11.3333C21.0496 10.9916 21.333 10.7083 21.6746 10.7083C23.6246 10.7083 25.2163 12.2999 25.2163 14.2499C25.2163 16.1666 23.7163 17.7166 21.808 17.7916C21.7996 17.7916 21.7913 17.7916 21.783 17.7916Z" fill="#690007"/>
<path d="M15.6413 26.7916C14.008 26.7916 12.3663 26.3749 11.1247 25.5416C9.96634 24.7749 9.33301 23.7249 9.33301 22.5833C9.33301 21.4416 9.96634 20.3833 11.1247 19.6083C13.6247 17.9499 17.6747 17.9499 20.158 19.6083C21.308 20.3749 21.9497 21.4249 21.9497 22.5666C21.9497 23.7083 21.3163 24.7666 20.158 25.5416C18.908 26.3749 17.2747 26.7916 15.6413 26.7916ZM11.8163 20.6583C11.0163 21.1916 10.583 21.8749 10.583 22.5916C10.583 23.2999 11.0247 23.9833 11.8163 24.5083C13.8913 25.8999 17.3913 25.8999 19.4663 24.5083C20.2663 23.9749 20.6997 23.2916 20.6997 22.5749C20.6997 21.8666 20.258 21.1833 19.4663 20.6583C17.3913 19.2749 13.8913 19.2749 11.8163 20.6583Z" fill="#690007"/>
<path d="M23.283 25.2917C22.9913 25.2917 22.733 25.0917 22.6746 24.7917C22.608 24.45 22.8246 24.125 23.158 24.05C23.683 23.9417 24.1663 23.7333 24.5413 23.4417C25.0163 23.0833 25.2746 22.6333 25.2746 22.1583C25.2746 21.6833 25.0163 21.2333 24.5496 20.8833C24.183 20.6 23.7246 20.4 23.183 20.275C22.8496 20.2 22.633 19.8667 22.708 19.525C22.783 19.1917 23.1163 18.975 23.458 19.05C24.1746 19.2083 24.7996 19.4917 25.308 19.8833C26.083 20.4667 26.5246 21.2917 26.5246 22.1583C26.5246 23.025 26.0746 23.85 25.2996 24.4417C24.783 24.8417 24.133 25.1333 23.4163 25.275C23.3663 25.2917 23.3246 25.2917 23.283 25.2917Z" fill="#690007"/>
</svg>
