<svg width="25" height="24" viewBox="0 0 25 24" fill="none" xmlns="http://www.w3.org/2000/svg">
<path d="M10.8815 16.8604V18.8904C10.8815 20.6104 9.28146 22.0004 7.31146 22.0004C5.34146 22.0004 3.73145 20.6104 3.73145 18.8904V16.8604C3.73145 18.5804 5.33146 19.8004 7.31146 19.8004C9.28146 19.8004 10.8815 18.5704 10.8815 16.8604Z" stroke="#292D32" stroke-width="1.5" stroke-linecap="round" stroke-linejoin="round"/>
<path d="M10.8799 14.11C10.8799 14.61 10.7399 15.07 10.4999 15.47C9.90994 16.44 8.69993 17.05 7.29993 17.05C5.89993 17.05 4.68991 16.43 4.09991 15.47C3.85991 15.07 3.71997 14.61 3.71997 14.11C3.71997 13.25 4.11995 12.48 4.75995 11.92C5.40995 11.35 6.29992 11.01 7.28992 11.01C8.27992 11.01 9.16995 11.36 9.81995 11.92C10.4799 12.47 10.8799 13.25 10.8799 14.11Z" stroke="#292D32" stroke-width="1.5" stroke-linecap="round" stroke-linejoin="round"/>
<path d="M10.8815 14.11V16.86C10.8815 18.58 9.28146 19.8 7.31146 19.8C5.34146 19.8 3.73145 18.57 3.73145 16.86V14.11C3.73145 12.39 5.33146 11 7.31146 11C8.30146 11 9.19149 11.35 9.84149 11.91C10.4815 12.47 10.8815 13.25 10.8815 14.11Z" stroke="#292D32" stroke-width="1.5" stroke-linecap="round" stroke-linejoin="round"/>
<path d="M22.1299 10.9699V13.03C22.1299 13.58 21.6899 14.0299 21.1299 14.0499H19.1698C18.0898 14.0499 17.0999 13.2599 17.0099 12.1799C16.9499 11.5499 17.1898 10.9599 17.6098 10.5499C17.9798 10.1699 18.4898 9.94995 19.0498 9.94995H21.1299C21.6899 9.96995 22.1299 10.4199 22.1299 10.9699Z" stroke="#292D32" stroke-width="1.5" stroke-linecap="round" stroke-linejoin="round"/>
<path d="M2.12988 10.5V8.5C2.12988 5.78 3.76989 3.88 6.31989 3.56C6.57989 3.52 6.84988 3.5 7.12988 3.5H16.1299C16.3899 3.5 16.6399 3.50999 16.8799 3.54999C19.4599 3.84999 21.1299 5.76 21.1299 8.5V9.95001H19.0499C18.4899 9.95001 17.9799 10.17 17.6099 10.55C17.1899 10.96 16.9499 11.55 17.0099 12.18C17.0999 13.26 18.0899 14.05 19.1699 14.05H21.1299V15.5C21.1299 18.5 19.1299 20.5 16.1299 20.5H13.6299" stroke="#292D32" stroke-width="1.5" stroke-linecap="round" stroke-linejoin="round"/>
</svg>
