<svg width="14" height="14" viewBox="0 0 14 14" fill="none" xmlns="http://www.w3.org/2000/svg">
<path d="M6.99984 13.2708C3.54067 13.2708 0.729004 10.4592 0.729004 7C0.729004 3.54083 3.54067 0.729164 6.99984 0.729164C10.459 0.729164 13.2707 3.54083 13.2707 7C13.2707 10.4592 10.459 13.2708 6.99984 13.2708ZM6.99984 1.60416C4.02484 1.60416 1.604 4.025 1.604 7C1.604 9.975 4.02484 12.3958 6.99984 12.3958C9.97484 12.3958 12.3957 9.975 12.3957 7C12.3957 4.025 9.97484 1.60416 6.99984 1.60416Z" fill="#690007"/>
<path d="M5.25014 12.6875H4.6668C4.42764 12.6875 4.2293 12.4892 4.2293 12.25C4.2293 12.0108 4.41597 11.8183 4.65514 11.8125C3.7393 8.68583 3.7393 5.31417 4.65514 2.1875C4.41597 2.18167 4.2293 1.98917 4.2293 1.75C4.2293 1.51083 4.42764 1.3125 4.6668 1.3125H5.25014C5.39014 1.3125 5.5243 1.3825 5.60597 1.49333C5.68764 1.61 5.71097 1.75583 5.6643 1.89C4.56764 5.18583 4.56764 8.81417 5.6643 12.1158C5.71097 12.25 5.68764 12.3958 5.60597 12.5125C5.5243 12.6175 5.39014 12.6875 5.25014 12.6875Z" fill="#690007"/>
<path d="M8.74991 12.6875C8.70324 12.6875 8.65657 12.6817 8.60991 12.6642C8.38241 12.5883 8.25407 12.3375 8.33574 12.11C9.43241 8.81417 9.43241 5.18584 8.33574 1.88417C8.25991 1.65667 8.38241 1.40584 8.60991 1.33C8.84324 1.25417 9.08824 1.37667 9.16407 1.60417C10.3249 5.08084 10.3249 8.9075 9.16407 12.3783C9.10574 12.5708 8.93074 12.6875 8.74991 12.6875Z" fill="#690007"/>
<path d="M7 10.0333C5.3725 10.0333 3.75083 9.80583 2.1875 9.345C2.18167 9.57833 1.98917 9.77083 1.75 9.77083C1.51083 9.77083 1.3125 9.5725 1.3125 9.33333V8.75C1.3125 8.61 1.3825 8.47583 1.49333 8.39417C1.61 8.3125 1.75583 8.28917 1.89 8.33583C5.18583 9.4325 8.82 9.4325 12.1158 8.33583C12.25 8.28917 12.3958 8.3125 12.5125 8.39417C12.6292 8.47583 12.6933 8.61 12.6933 8.75V9.33333C12.6933 9.5725 12.495 9.77083 12.2558 9.77083C12.0167 9.77083 11.8242 9.58417 11.8183 9.345C10.2492 9.80583 8.6275 10.0333 7 10.0333Z" fill="#690007"/>
<path d="M12.2502 5.6875C12.2035 5.6875 12.1569 5.68167 12.1102 5.66417C8.81437 4.5675 5.1802 4.5675 1.88437 5.66417C1.65103 5.74 1.40603 5.6175 1.3302 5.39C1.2602 5.15667 1.3827 4.91167 1.6102 4.83583C5.08687 3.675 8.91353 3.675 12.3844 4.83583C12.6119 4.91167 12.7402 5.1625 12.6585 5.39C12.606 5.57083 12.431 5.6875 12.2502 5.6875Z" fill="#690007"/>
</svg>
