<svg width="32" height="33" viewBox="0 0 32 33" fill="none" xmlns="http://www.w3.org/2000/svg">
<rect y="0.544922" width="32" height="32" rx="16" fill="#690007"/>
<path d="M18.6155 11.4772C18.6155 12.2881 17.955 12.9485 17.1441 12.9485H14.8554C14.4499 12.9485 14.0837 12.7851 13.8156 12.5169C13.5475 12.2488 13.384 11.8826 13.384 11.4772C13.384 10.6663 14.0445 10.0059 14.8554 10.0059H17.1441C17.5496 10.0059 17.9158 10.1693 18.1839 10.4375C18.452 10.7056 18.6155 11.0718 18.6155 11.4772Z" fill="#FBF0DC"/>
<path d="M20.4665 11.9883C20.3161 11.8641 20.1461 11.766 19.963 11.6941C19.7734 11.6221 19.5837 11.7725 19.5445 11.9687C19.3222 13.0869 18.3347 13.9305 17.1446 13.9305H14.8558C14.2019 13.9305 13.5872 13.6755 13.1229 13.2112C12.7829 12.8711 12.5475 12.4395 12.4559 11.9753C12.4167 11.7791 12.2205 11.6221 12.0309 11.7006C11.2723 12.008 10.7688 12.7011 10.7688 14.094V20.4698C10.7688 22.4316 11.9393 23.0855 13.3845 23.0855H18.6159C20.0611 23.0855 21.2316 22.4316 21.2316 20.4698V14.094C21.2316 13.0281 20.9374 12.3742 20.4665 11.9883ZM13.3845 16.7097H16.0002C16.2683 16.7097 16.4907 16.932 16.4907 17.2001C16.4907 17.4682 16.2683 17.6906 16.0002 17.6906H13.3845C13.1164 17.6906 12.8941 17.4682 12.8941 17.2001C12.8941 16.932 13.1164 16.7097 13.3845 16.7097ZM18.6159 20.3063H13.3845C13.1164 20.3063 12.8941 20.084 12.8941 19.8158C12.8941 19.5477 13.1164 19.3254 13.3845 19.3254H18.6159C18.884 19.3254 19.1064 19.5477 19.1064 19.8158C19.1064 20.084 18.884 20.3063 18.6159 20.3063Z" fill="#FBF0DC"/>
</svg>
