<svg width="18" height="18" viewBox="0 0 18 18" fill="none" xmlns="http://www.w3.org/2000/svg">
<path d="M6.75032 13.3133C6.44282 13.3133 6.18782 13.0583 6.18782 12.7508V9.60835L5.64782 10.1483C5.43032 10.3658 5.07032 10.3658 4.85282 10.1483C4.63532 9.93085 4.63532 9.57085 4.85282 9.35335L6.35282 7.85335C6.51032 7.69585 6.75782 7.64335 6.96782 7.73335C7.17782 7.81585 7.31282 8.02585 7.31282 8.25085V12.7508C7.31282 13.0583 7.05782 13.3133 6.75032 13.3133Z" fill="#111111"/>
<path d="M8.25032 10.3126C8.10782 10.3126 7.96532 10.2601 7.85282 10.1476L6.35282 8.64758C6.13532 8.43008 6.13532 8.07008 6.35282 7.85258C6.57032 7.63508 6.93032 7.63508 7.14782 7.85258L8.64782 9.35258C8.86532 9.57008 8.86532 9.93008 8.64782 10.1476C8.53532 10.2601 8.39282 10.3126 8.25032 10.3126Z" fill="#111111"/>
<path d="M11.25 17.0625H6.75C2.6775 17.0625 0.9375 15.3225 0.9375 11.25V6.75C0.9375 2.6775 2.6775 0.9375 6.75 0.9375H10.5C10.8075 0.9375 11.0625 1.1925 11.0625 1.5C11.0625 1.8075 10.8075 2.0625 10.5 2.0625H6.75C3.2925 2.0625 2.0625 3.2925 2.0625 6.75V11.25C2.0625 14.7075 3.2925 15.9375 6.75 15.9375H11.25C14.7075 15.9375 15.9375 14.7075 15.9375 11.25V7.5C15.9375 7.1925 16.1925 6.9375 16.5 6.9375C16.8075 6.9375 17.0625 7.1925 17.0625 7.5V11.25C17.0625 15.3225 15.3225 17.0625 11.25 17.0625Z" fill="#111111"/>
<path d="M16.5 8.06335H13.5C10.935 8.06335 9.9375 7.06585 9.9375 4.50085V1.50085C9.9375 1.27585 10.0725 1.06585 10.2825 0.983346C10.4925 0.893346 10.7325 0.945846 10.8975 1.10335L16.8975 7.10335C17.055 7.26085 17.1075 7.50835 17.0175 7.71835C16.9275 7.92835 16.725 8.06335 16.5 8.06335ZM11.0625 2.85835V4.50085C11.0625 6.43585 11.565 6.93835 13.5 6.93835H15.1425L11.0625 2.85835Z" fill="#111111"/>
</svg>
