<svg width="20" height="20" viewBox="0 0 20 20" fill="none" xmlns="http://www.w3.org/2000/svg">
<path d="M12.4998 18.9583H7.49984C2.97484 18.9583 1.0415 17.025 1.0415 12.5V7.49999C1.0415 2.97499 2.97484 1.04166 7.49984 1.04166H12.4998C17.0248 1.04166 18.9582 2.97499 18.9582 7.49999V12.5C18.9582 17.025 17.0248 18.9583 12.4998 18.9583ZM7.49984 2.29166C3.65817 2.29166 2.2915 3.65832 2.2915 7.49999V12.5C2.2915 16.3417 3.65817 17.7083 7.49984 17.7083H12.4998C16.3415 17.7083 17.7082 16.3417 17.7082 12.5V7.49999C17.7082 3.65832 16.3415 2.29166 12.4998 2.29166H7.49984Z" fill="#690007"/>
<path d="M7.50016 8.95833C6.2335 8.95833 5.2085 7.93333 5.2085 6.66667C5.2085 5.4 6.2335 4.375 7.50016 4.375C8.76683 4.375 9.79183 5.4 9.79183 6.66667C9.79183 7.93333 8.76683 8.95833 7.50016 8.95833ZM7.50016 5.625C6.92516 5.625 6.4585 6.09167 6.4585 6.66667C6.4585 7.24167 6.92516 7.70833 7.50016 7.70833C8.07516 7.70833 8.54183 7.24167 8.54183 6.66667C8.54183 6.09167 8.07516 5.625 7.50016 5.625Z" fill="#690007"/>
<path d="M2.22497 16.4167C2.02497 16.4167 1.82497 16.3167 1.70831 16.1417C1.51664 15.8583 1.59164 15.4667 1.88331 15.275L5.99164 12.5167C6.89164 11.9083 8.13331 11.9833 8.94997 12.675L9.22497 12.9167C9.64164 13.275 10.35 13.275 10.7583 12.9167L14.225 9.94167C15.1083 9.18334 16.5 9.18334 17.3916 9.94167L18.75 11.1083C19.0083 11.3333 19.0416 11.725 18.8166 11.9917C18.5916 12.25 18.2 12.2833 17.9333 12.0583L16.575 10.8917C16.1583 10.5333 15.45 10.5333 15.0333 10.8917L11.5666 13.8667C10.6833 14.625 9.29164 14.625 8.39997 13.8667L8.12497 13.625C7.74164 13.3 7.10831 13.2667 6.68331 13.5583L2.57497 16.3167C2.46664 16.3833 2.34164 16.4167 2.22497 16.4167Z" fill="#690007"/>
</svg>
