<svg width="18" height="18" viewBox="0 0 18 18" fill="none" xmlns="http://www.w3.org/2000/svg">
<path d="M9.01502 15.397C7.26752 15.397 5.52002 15.1195 3.86252 14.5645C3.23252 14.347 2.75252 13.9045 2.54252 13.327C2.32502 12.7495 2.40002 12.112 2.74502 11.542L3.60752 10.1095C3.78752 9.80945 3.95252 9.20945 3.95252 8.85695V6.68945C3.95252 3.89945 6.22502 1.62695 9.01502 1.62695C11.805 1.62695 14.0775 3.89945 14.0775 6.68945V8.85695C14.0775 9.20195 14.2425 9.80945 14.4225 10.117L15.2775 11.542C15.6 12.082 15.66 12.7345 15.4425 13.327C15.225 13.9195 14.7525 14.3695 14.16 14.5645C12.51 15.1195 10.7625 15.397 9.01502 15.397ZM9.01502 2.75195C6.84752 2.75195 5.07752 4.51445 5.07752 6.68945V8.85695C5.07752 9.40445 4.85252 10.2145 4.57502 10.687L3.71252 12.1195C3.54752 12.397 3.50252 12.6895 3.60002 12.937C3.69002 13.192 3.91502 13.387 4.22252 13.492C7.35752 14.542 10.68 14.542 13.815 13.492C14.085 13.402 14.295 13.1995 14.3925 12.9295C14.49 12.6595 14.4675 12.367 14.3175 12.1195L13.455 10.687C13.17 10.1995 12.9525 9.39695 12.9525 8.84945V6.68945C12.9525 4.51445 11.19 2.75195 9.01502 2.75195Z" fill="#475569"/>
<path d="M10.4097 2.95477C10.3572 2.95477 10.3047 2.94727 10.2522 2.93227C10.0347 2.87227 9.82472 2.82727 9.62222 2.79727C8.98472 2.71477 8.36972 2.75977 7.79222 2.93227C7.58222 2.99977 7.35722 2.93227 7.21472 2.77477C7.07222 2.61727 7.02722 2.39227 7.10972 2.18977C7.41722 1.40227 8.16722 0.884766 9.02222 0.884766C9.87722 0.884766 10.6272 1.39477 10.9347 2.18977C11.0097 2.39227 10.9722 2.61727 10.8297 2.77477C10.7172 2.89477 10.5597 2.95477 10.4097 2.95477Z" fill="#475569"/>
<path d="M9.01465 17.1074C8.27215 17.1074 7.55215 16.8074 7.02715 16.2824C6.50215 15.7574 6.20215 15.0374 6.20215 14.2949H7.32715C7.32715 14.7374 7.50715 15.1724 7.82215 15.4874C8.13715 15.8024 8.57215 15.9824 9.01465 15.9824C9.94465 15.9824 10.7021 15.2249 10.7021 14.2949H11.8271C11.8271 15.8474 10.5671 17.1074 9.01465 17.1074Z" fill="#475569"/>
</svg>
