<svg width="20" height="20" viewBox="0 0 20 20" fill="none" xmlns="http://www.w3.org/2000/svg">
<path d="M14.1667 16.6673C14.6088 16.6673 15.0327 16.4917 15.3453 16.1792C15.6578 15.8666 15.8334 15.4427 15.8334 15.0007C15.8334 14.5586 15.6578 14.1347 15.3453 13.8221C15.0327 13.5096 14.6088 13.334 14.1667 13.334C13.7247 13.334 13.3008 13.5096 12.9882 13.8221C12.6757 14.1347 12.5001 14.5586 12.5001 15.0007C12.5001 15.4427 12.6757 15.8666 12.9882 16.1792C13.3008 16.4917 13.7247 16.6673 14.1667 16.6673ZM5.83341 16.6673C6.27544 16.6673 6.69937 16.4917 7.01193 16.1792C7.32449 15.8666 7.50008 15.4427 7.50008 15.0007C7.50008 14.5586 7.32449 14.1347 7.01193 13.8221C6.69937 13.5096 6.27544 13.334 5.83341 13.334C5.39139 13.334 4.96746 13.5096 4.6549 13.8221C4.34234 14.1347 4.16675 14.5586 4.16675 15.0007C4.16675 15.4427 4.34234 15.8666 4.6549 16.1792C4.96746 16.4917 5.39139 16.6673 5.83341 16.6673Z" stroke="#475569" stroke-width="1.25"/>
<path d="M15.8334 9.16732H18.3334M18.3334 9.16732V10.834C18.3334 12.7982 18.3334 13.7798 17.7234 14.3907C17.3176 14.7965 16.7476 14.9323 15.8334 14.9773M18.3334 9.16732L17.2701 7.19232C16.6951 6.12398 16.4076 5.58982 15.9134 5.29565C15.4201 5.00065 14.8142 5.00065 13.6009 5.00065H12.0834M4.16675 14.9773C3.25258 14.9323 2.68341 14.7965 2.27675 14.3907C1.66675 13.7798 1.66675 12.7982 1.66675 10.834V7.50065C1.66675 5.53648 1.66675 4.55398 2.27675 3.94398C2.88675 3.33398 3.86925 3.33398 5.83341 3.33398H8.58341C9.51425 3.33398 9.97925 3.33398 10.3559 3.45648C10.7311 3.5784 11.0721 3.78738 11.3511 4.06633C11.63 4.34529 11.839 4.6863 11.9609 5.06148C12.0834 5.43815 12.0834 5.90315 12.0834 6.83398C12.0834 7.85065 12.0834 8.35982 11.8051 8.70398C11.7501 8.77176 11.6884 8.83343 11.6201 8.88898C11.2759 9.16732 10.7676 9.16732 9.75008 9.16732H6.66675M12.5001 15.0007H7.50008" stroke="#475569" stroke-width="1.25" stroke-linecap="round" stroke-linejoin="round"/>
<path d="M8.33341 10.8333C8.33341 10.8333 7.77342 10.37 7.28092 9.93C6.93342 9.65 6.66675 9.41083 6.66675 9.17083C6.66675 8.95833 6.87508 8.76083 7.21341 8.45083C7.69341 8.05167 8.33341 7.5 8.33341 7.5" stroke="#475569" stroke-width="1.25" stroke-linecap="round" stroke-linejoin="round"/>
</svg>
