<svg width="18" height="18" viewBox="0 0 18 18" fill="none" xmlns="http://www.w3.org/2000/svg">
<path d="M8.99989 17.0621C8.81989 17.0621 8.63989 17.0396 8.46739 16.9871C4.57489 15.9146 1.75488 12.2771 1.75488 8.3321V5.03959C1.75488 4.19959 2.36239 3.29213 3.14239 2.96963L7.31989 1.25961C8.40739 0.817109 9.59988 0.817109 10.6799 1.25961L14.8574 2.96963C15.6374 3.29213 16.2449 4.19959 16.2449 5.03959V8.3321C16.2449 12.2696 13.4174 15.9071 9.53238 16.9871C9.35988 17.0396 9.17989 17.0621 8.99989 17.0621ZM8.99989 2.06211C8.57239 2.06211 8.15238 2.14463 7.74738 2.30963L3.56989 4.0196C3.20989 4.1696 2.87988 4.6571 2.87988 5.0471V8.33961C2.87988 11.7821 5.35489 14.9621 8.76739 15.9071C8.91739 15.9521 9.08238 15.9521 9.23238 15.9071C12.6449 14.9621 15.1199 11.7821 15.1199 8.33961V5.0471C15.1199 4.6571 14.7899 4.1696 14.4299 4.0196L10.2524 2.30963C9.8474 2.14463 9.42739 2.06211 8.99989 2.06211Z" fill="#475569"/>
<path d="M9 9.9375C7.86 9.9375 6.9375 9.015 6.9375 7.875C6.9375 6.735 7.86 5.8125 9 5.8125C10.14 5.8125 11.0625 6.735 11.0625 7.875C11.0625 9.015 10.14 9.9375 9 9.9375ZM9 6.9375C8.4825 6.9375 8.0625 7.3575 8.0625 7.875C8.0625 8.3925 8.4825 8.8125 9 8.8125C9.5175 8.8125 9.9375 8.3925 9.9375 7.875C9.9375 7.3575 9.5175 6.9375 9 6.9375Z" fill="#475569"/>
<path d="M9 12.1875C8.6925 12.1875 8.4375 11.9325 8.4375 11.625V9.375C8.4375 9.0675 8.6925 8.8125 9 8.8125C9.3075 8.8125 9.5625 9.0675 9.5625 9.375V11.625C9.5625 11.9325 9.3075 12.1875 9 12.1875Z" fill="#475569"/>
</svg>
