<svg width="92" height="24" viewBox="0 0 92 24" fill="none" xmlns="http://www.w3.org/2000/svg">
<path d="M-0.000244141 3.75667H8.26101V23.6884H12.1973V4.50961C12.1973 4.27443 12.1973 3.75667 12.1973 3.75667C12.1973 3.75667 12.6458 3.75667 12.9503 3.75667H20.4586V0.0174561H-0.000244141V3.75667Z" fill="#690007"/>
<path d="M26.1531 0.158081H22.2168V23.8291H26.1531V0.158081Z" fill="#690007"/>
<path d="M45.279 -0.00012207V7.33436H43.6314V8.98196H41.9838V10.6296H40.3373V12.2772H38.6787V13.9347H37.0311V15.5823H35.3835V17.2299H33.7248V18.8886H32.0783V19.8121H43.4421V21.1352H44.4785V19.8121H45.279V23.8303H28.0601V16.5069H29.7077V14.8593H31.3553V13.2117H33.0018V11.553H34.6604V9.90652H36.308V8.25892H37.9556V6.61132H39.6132V4.95264H41.2608V4.02919H28.0601V-0.00012207H45.279Z" fill="#690007"/>
<path d="M48.4968 18.8886V19.8121H61.6975V23.8303H44.4785V16.5069H46.1261V14.8593H47.7737V13.2117H49.4213V11.553H51.0789V9.90652H52.7265V8.25892H54.3741V6.61132H56.0328V4.95264H57.6793V4.02919H46.3155V2.49896H45.2791V4.02919H44.4785V-0.00012207H61.6975V7.33436H60.0499V8.98196H58.4034V10.6296H56.7558V12.2772H55.0971V13.9347H53.4495V15.5823H51.803V17.2299H50.1444V18.8886H48.4968Z" fill="#690007"/>
<path d="M67.6825 0.158081H63.7462V23.8291H67.6825V0.158081Z" fill="#690007"/>
<path d="M74.1665 20.091C73.8088 20.091 73.4456 20.1585 73.0825 20.2903C73.2153 19.9271 73.2818 19.5639 73.2818 19.2063V0.158081H69.3455V23.8291H86.1326V20.0898H74.1654L74.1665 20.091Z" fill="#690007"/>
<path d="M87.2836 21.7774C87.2836 20.5505 88.279 19.5551 89.5058 19.5551C90.7327 19.5551 91.7281 20.5505 91.7281 21.7774C91.7281 23.0042 90.7327 23.9996 89.5058 23.9996C88.279 23.9996 87.2836 23.0042 87.2836 21.7774ZM91.4291 21.7929C91.4291 20.7155 90.5688 19.8474 89.5058 19.8474C88.4429 19.8474 87.5825 20.7155 87.5825 21.7929C87.5825 22.8702 88.4429 23.7383 89.5058 23.7383C90.5688 23.7383 91.4291 22.8702 91.4291 21.7929ZM88.878 22.7584V21.8903H89.6708L90.1647 22.7584H90.4415C90.292 22.5037 90.1492 22.2491 89.993 22.0022L89.9255 21.897L90.0528 21.8815C90.3296 21.8593 90.4946 21.6345 90.4946 21.35C90.4946 21.0211 90.2997 20.7963 89.9786 20.7963H88.6322V22.7562H88.8791L88.878 22.7584ZM88.878 21.03H89.9775C90.1492 21.03 90.2543 21.1496 90.2543 21.3068V21.3743C90.2543 21.5238 90.1569 21.6589 89.9775 21.6589H88.878V21.03Z" fill="#690007"/>
</svg>
