<svg width="22" height="22" viewBox="0 0 22 22" fill="none" xmlns="http://www.w3.org/2000/svg">
<path d="M4.69567 13.3926C3.34166 13.3926 2.24597 12.2969 2.24597 10.9429C2.24597 9.58885 3.34166 8.49316 4.69567 8.49316C6.04969 8.49316 7.14537 9.58885 7.14537 10.9429C7.14537 12.2969 6.04969 13.3926 4.69567 13.3926ZM4.69567 9.82936C4.08102 9.82936 3.58217 10.3282 3.58217 10.9429C3.58217 11.5575 4.08102 12.0564 4.69567 12.0564C5.31032 12.0564 5.80917 11.5575 5.80917 10.9429C5.80917 10.3282 5.31032 9.82936 4.69567 9.82936Z" fill="#667085"/>
<path d="M17.1669 13.3926C15.8128 13.3926 14.7172 12.2969 14.7172 10.9429C14.7172 9.58885 15.8128 8.49316 17.1669 8.49316C18.5209 8.49316 19.6166 9.58885 19.6166 10.9429C19.6166 12.2969 18.5209 13.3926 17.1669 13.3926ZM17.1669 9.82936C16.5522 9.82936 16.0534 10.3282 16.0534 10.9429C16.0534 11.5575 16.5522 12.0564 17.1669 12.0564C17.7815 12.0564 18.2804 11.5575 18.2804 10.9429C18.2804 10.3282 17.7815 9.82936 17.1669 9.82936Z" fill="#667085"/>
<path d="M10.9313 13.3926C9.57725 13.3926 8.48157 12.2969 8.48157 10.9429C8.48157 9.58885 9.57725 8.49316 10.9313 8.49316C12.2853 8.49316 13.381 9.58885 13.381 10.9429C13.381 12.2969 12.2853 13.3926 10.9313 13.3926ZM10.9313 9.82936C10.3166 9.82936 9.81777 10.3282 9.81777 10.9429C9.81777 11.5575 10.3166 12.0564 10.9313 12.0564C11.5459 12.0564 12.0448 11.5575 12.0448 10.9429C12.0448 10.3282 11.5459 9.82936 10.9313 9.82936Z" fill="#667085"/>
</svg>
