<svg width="20" height="20" viewBox="0 0 20 20" fill="none" xmlns="http://www.w3.org/2000/svg">
<g clip-path="url(#clip0_1043_59853)">
<path d="M11.6667 11.2507H8.33333C8.22282 11.2507 8.11684 11.2945 8.0387 11.3727C7.96056 11.4508 7.91666 11.5568 7.91666 11.6673C7.91666 11.7778 7.96056 11.8838 8.0387 11.9619C8.11684 12.0401 8.22282 12.084 8.33333 12.084H11.6667C11.7772 12.084 11.8832 12.0401 11.9613 11.9619C12.0394 11.8838 12.0833 11.7778 12.0833 11.6673C12.0833 11.5568 12.0394 11.4508 11.9613 11.3727C11.8832 11.2945 11.7772 11.2507 11.6667 11.2507ZM8.33333 8.75065H9.16666C9.27717 8.75065 9.38315 8.70675 9.46129 8.62861C9.53943 8.55047 9.58333 8.44449 9.58333 8.33398C9.58333 8.22348 9.53943 8.1175 9.46129 8.03936C9.38315 7.96122 9.27717 7.91732 9.16666 7.91732H8.33333C8.22282 7.91732 8.11684 7.96122 8.0387 8.03936C7.96056 8.1175 7.91666 8.22348 7.91666 8.33398C7.91666 8.44449 7.96056 8.55047 8.0387 8.62861C8.11684 8.70675 8.22282 8.75065 8.33333 8.75065ZM13.3333 8.75065C13.2228 8.75065 13.1168 8.70675 13.0387 8.62861C12.9606 8.55047 12.9167 8.44449 12.9167 8.33398V7.50065C12.9158 6.72737 12.6082 5.98602 12.0614 5.43923C11.5146 4.89244 10.7733 4.58487 10 4.58398H8.33333C7.33911 4.58509 6.38592 4.98053 5.6829 5.68355C4.97988 6.38657 4.58443 7.33976 4.58333 8.33398V11.6673C4.58443 12.6615 4.97988 13.6147 5.6829 14.3177C6.38592 15.0208 7.33911 15.4162 8.33333 15.4173H11.6667C12.6609 15.4162 13.6141 15.0208 14.3171 14.3177C15.0201 13.6147 15.4156 12.6615 15.4167 11.6673V10.834C15.4167 10.2814 15.1972 9.75154 14.8065 9.36084C14.4158 8.97014 13.8859 8.75065 13.3333 8.75065ZM14.5833 11.6673C14.5824 12.4406 14.2749 13.1819 13.7281 13.7287C13.1813 14.2755 12.4399 14.5831 11.6667 14.584H8.33333C7.56005 14.5831 6.8187 14.2755 6.27191 13.7287C5.72512 13.1819 5.41755 12.4406 5.41667 11.6673V8.33398C5.41755 7.56071 5.72512 6.81935 6.27191 6.27256C6.8187 5.72577 7.56005 5.4182 8.33333 5.41732H10C10.5525 5.41732 11.0824 5.63681 11.4731 6.02751C11.8638 6.41821 12.0833 6.94812 12.0833 7.50065V8.33398C12.0833 9.02398 12.6433 9.58398 13.3333 9.58398C14.0233 9.58398 14.5833 10.144 14.5833 10.834V11.6673ZM16.6667 0.833984H3.33333C2.67049 0.834646 2.03499 1.09825 1.5663 1.56695C1.0976 2.03565 0.833994 2.67115 0.833332 3.33398V16.6673C0.833994 17.3302 1.0976 17.9657 1.5663 18.4344C2.03499 18.903 2.67049 19.1667 3.33333 19.1673H16.6667C17.3295 19.1667 17.965 18.903 18.4337 18.4344C18.9024 17.9657 19.166 17.3302 19.1667 16.6673V3.33398C19.166 2.67115 18.9024 2.03565 18.4337 1.56695C17.965 1.09825 17.3295 0.834646 16.6667 0.833984ZM18.3333 16.6673C18.3327 17.1091 18.1569 17.5327 17.8444 17.8451C17.532 18.1575 17.1085 18.3333 16.6667 18.334H3.33333C2.89151 18.3333 2.46797 18.1575 2.15555 17.8451C1.84313 17.5327 1.66733 17.1091 1.66667 16.6673V3.33398C1.66733 2.89216 1.84313 2.46862 2.15555 2.1562C2.46797 1.84379 2.89151 1.66798 3.33333 1.66732H16.6667C17.1085 1.66798 17.532 1.84379 17.8444 2.1562C18.1569 2.46862 18.3327 2.89216 18.3333 3.33398V16.6673Z" fill="#FBF0DC"/>
</g>
<defs>
<clipPath id="clip0_1043_59853">
<rect width="20" height="20" fill="white"/>
</clipPath>
</defs>
</svg>
