<svg width="17" height="18" viewBox="0 0 17 18" fill="none" xmlns="http://www.w3.org/2000/svg">
<path d="M13.1875 7.125C14.7408 7.125 16 5.8658 16 4.3125C16 2.7592 14.7408 1.5 13.1875 1.5C11.6342 1.5 10.375 2.7592 10.375 4.3125C10.375 5.8658 11.6342 7.125 13.1875 7.125Z" stroke="#FBF0DC" stroke-width="1.40625" stroke-linecap="round" stroke-linejoin="round"/>
<path d="M3.8125 16.5C5.3658 16.5 6.625 15.2408 6.625 13.6875C6.625 12.1342 5.3658 10.875 3.8125 10.875C2.2592 10.875 1 12.1342 1 13.6875C1 15.2408 2.2592 16.5 3.8125 16.5Z" stroke="#FBF0DC" stroke-width="1.40625" stroke-linecap="round" stroke-linejoin="round"/>
<path d="M10.375 10.875H16V15.5625C16 15.8111 15.9012 16.0496 15.7254 16.2254C15.5496 16.4012 15.3111 16.5 15.0625 16.5H11.3125C11.0639 16.5 10.8254 16.4012 10.6496 16.2254C10.4738 16.0496 10.375 15.8111 10.375 15.5625V10.875ZM1 1.5H6.625V6.1875C6.625 6.43614 6.52623 6.6746 6.35041 6.85041C6.1746 7.02623 5.93614 7.125 5.6875 7.125H1.9375C1.68886 7.125 1.4504 7.02623 1.27459 6.85041C1.09877 6.6746 1 6.43614 1 6.1875V1.5Z" stroke="#FBF0DC" stroke-width="1.40625" stroke-linecap="round" stroke-linejoin="round"/>
</svg>
