<svg width="18" height="18" viewBox="0 0 18 18" fill="none" xmlns="http://www.w3.org/2000/svg">
<path d="M13.3425 17.0552H4.6575C2.6025 17.0552 0.9375 15.3827 0.9375 13.3277V7.77016C0.9375 6.75016 1.5675 5.46766 2.3775 4.83766L6.42 1.68766C7.635 0.742656 9.5775 0.697656 10.8375 1.58266L15.4725 4.83016C16.365 5.45266 17.0625 6.78766 17.0625 7.87516V13.3352C17.0625 15.3827 15.3975 17.0552 13.3425 17.0552ZM7.11 2.57266L3.0675 5.72266C2.535 6.14266 2.0625 7.09516 2.0625 7.77016V13.3277C2.0625 14.7602 3.225 15.9302 4.6575 15.9302H13.3425C14.775 15.9302 15.9375 14.7677 15.9375 13.3352V7.87516C15.9375 7.15516 15.42 6.15766 14.8275 5.75266L10.1925 2.50516C9.3375 1.90516 7.9275 1.93516 7.11 2.57266Z" fill="#FBF0DC"/>
<path d="M10.125 14.0625H7.875C6.3225 14.0625 5.0625 12.8025 5.0625 11.25V9C5.0625 7.4475 6.3225 6.1875 7.875 6.1875H10.125C11.6775 6.1875 12.9375 7.4475 12.9375 9V11.25C12.9375 12.8025 11.6775 14.0625 10.125 14.0625ZM7.875 7.3125C6.945 7.3125 6.1875 8.07 6.1875 9V11.25C6.1875 12.18 6.945 12.9375 7.875 12.9375H10.125C11.055 12.9375 11.8125 12.18 11.8125 11.25V9C11.8125 8.07 11.055 7.3125 10.125 7.3125H7.875Z" fill="#FBF0DC"/>
<path d="M9 14.0625C8.6925 14.0625 8.4375 13.8075 8.4375 13.5V6.75C8.4375 6.4425 8.6925 6.1875 9 6.1875C9.3075 6.1875 9.5625 6.4425 9.5625 6.75V13.5C9.5625 13.8075 9.3075 14.0625 9 14.0625Z" fill="#FBF0DC"/>
<path d="M12.375 10.6875H5.625C5.3175 10.6875 5.0625 10.4325 5.0625 10.125C5.0625 9.8175 5.3175 9.5625 5.625 9.5625H12.375C12.6825 9.5625 12.9375 9.8175 12.9375 10.125C12.9375 10.4325 12.6825 10.6875 12.375 10.6875Z" fill="#FBF0DC"/>
</svg>
