<svg width="18" height="18" viewBox="0 0 18 18" fill="none" xmlns="http://www.w3.org/2000/svg">
<path d="M12.75 15.9375H5.25C2.5125 15.9375 0.9375 14.3625 0.9375 11.625V6.375C0.9375 3.6375 2.5125 2.0625 5.25 2.0625H12.75C15.4875 2.0625 17.0625 3.6375 17.0625 6.375V11.625C17.0625 14.3625 15.4875 15.9375 12.75 15.9375ZM5.25 3.1875C3.105 3.1875 2.0625 4.23 2.0625 6.375V11.625C2.0625 13.77 3.105 14.8125 5.25 14.8125H12.75C14.895 14.8125 15.9375 13.77 15.9375 11.625V6.375C15.9375 4.23 14.895 3.1875 12.75 3.1875H5.25Z" fill="#FBF0DC"/>
<path d="M9 11.8125C7.4475 11.8125 6.1875 10.5525 6.1875 9C6.1875 7.4475 7.4475 6.1875 9 6.1875C10.5525 6.1875 11.8125 7.4475 11.8125 9C11.8125 10.5525 10.5525 11.8125 9 11.8125ZM9 7.3125C8.07 7.3125 7.3125 8.07 7.3125 9C7.3125 9.93 8.07 10.6875 9 10.6875C9.93 10.6875 10.6875 9.93 10.6875 9C10.6875 8.07 9.93 7.3125 9 7.3125Z" fill="#FBF0DC"/>
<path d="M2.25 7.3125H1.5C1.1925 7.3125 0.9375 7.0575 0.9375 6.75C0.9375 6.4425 1.1925 6.1875 1.5 6.1875H2.25C4.185 6.1875 4.6875 5.685 4.6875 3.75V3C4.6875 2.6925 4.9425 2.4375 5.25 2.4375C5.5575 2.4375 5.8125 2.6925 5.8125 3V3.75C5.8125 6.315 4.815 7.3125 2.25 7.3125Z" fill="#FBF0DC"/>
<path d="M16.5 7.3125H15.75C13.185 7.3125 12.1875 6.315 12.1875 3.75V3C12.1875 2.6925 12.4425 2.4375 12.75 2.4375C13.0575 2.4375 13.3125 2.6925 13.3125 3V3.75C13.3125 5.685 13.815 6.1875 15.75 6.1875H16.5C16.8075 6.1875 17.0625 6.4425 17.0625 6.75C17.0625 7.0575 16.8075 7.3125 16.5 7.3125Z" fill="#FBF0DC"/>
<path d="M5.25 15.5625C4.9425 15.5625 4.6875 15.3075 4.6875 15V14.25C4.6875 12.315 4.185 11.8125 2.25 11.8125H1.5C1.1925 11.8125 0.9375 11.5575 0.9375 11.25C0.9375 10.9425 1.1925 10.6875 1.5 10.6875H2.25C4.815 10.6875 5.8125 11.685 5.8125 14.25V15C5.8125 15.3075 5.5575 15.5625 5.25 15.5625Z" fill="#FBF0DC"/>
<path d="M12.75 15.5625C12.4425 15.5625 12.1875 15.3075 12.1875 15V14.25C12.1875 11.685 13.185 10.6875 15.75 10.6875H16.5C16.8075 10.6875 17.0625 10.9425 17.0625 11.25C17.0625 11.5575 16.8075 11.8125 16.5 11.8125H15.75C13.815 11.8125 13.3125 12.315 13.3125 14.25V15C13.3125 15.3075 13.0575 15.5625 12.75 15.5625Z" fill="#FBF0DC"/>
</svg>
