<svg width="18" height="18" viewBox="0 0 18 18" fill="none" xmlns="http://www.w3.org/2000/svg">
<path d="M9.75 17.0625H8.25C5.775 17.0625 4.2825 16.5675 4.005 14.055C3.96 13.7175 3.9375 13.3125 3.9375 12.75V5.25C3.9375 4.6875 3.96 4.2825 4.0125 3.9225C4.2825 1.4325 5.775 0.9375 8.25 0.9375H9.75C12.225 0.9375 13.7175 1.4325 13.995 3.945C14.04 4.2825 14.0625 4.6875 14.0625 5.25V12.75C14.0625 13.3125 14.04 13.7175 13.9875 14.0775C13.7175 16.5675 12.225 17.0625 9.75 17.0625ZM8.25 2.0625C5.7675 2.0625 5.295 2.565 5.13 4.065C5.085 4.3875 5.0625 4.74 5.0625 5.25V12.75C5.0625 13.26 5.085 13.6125 5.1225 13.9125C5.2875 15.435 5.7675 15.9375 8.25 15.9375H9.75C12.2325 15.9375 12.705 15.435 12.87 13.935C12.915 13.62 12.9375 13.26 12.9375 12.75V5.25C12.9375 4.7475 12.915 4.3875 12.8775 4.0875C12.7125 2.565 12.2325 2.0625 9.75 2.0625H8.25Z" fill="#FBF0DC"/>
<path d="M4.2525 14.5651H3.9975C1.68 14.5651 0.9375 13.8226 0.9375 11.4976V6.50256C0.9375 4.17756 1.68 3.43506 3.9975 3.43506H4.2525C4.38 3.43506 4.485 3.43506 4.605 3.44256C4.7625 3.45006 4.905 3.52506 5.0025 3.65256C5.1 3.78006 5.145 3.93006 5.1225 4.08756C5.085 4.38756 5.0625 4.74006 5.0625 5.25006V12.7501C5.0625 13.2601 5.085 13.6126 5.1225 13.9126C5.145 14.0701 5.1 14.2276 5.0025 14.3476C4.905 14.4676 4.7625 14.5426 4.605 14.5576C4.485 14.5651 4.38 14.5651 4.2525 14.5651ZM3.9525 4.56006C2.31 4.56756 2.0625 4.83006 2.0625 6.50256V11.4976C2.0625 13.1701 2.31 13.4326 3.9525 13.4401C3.945 13.2376 3.9375 13.0126 3.9375 12.7501V5.25006C3.9375 4.98756 3.945 4.76256 3.9525 4.56006Z" fill="#FBF0DC"/>
<path d="M14.0025 14.5651H13.7475C13.62 14.5651 13.515 14.5651 13.395 14.5576C13.2375 14.5501 13.095 14.4751 12.9975 14.3476C12.9 14.2276 12.855 14.0701 12.8775 13.9126C12.9225 13.6126 12.9375 13.2526 12.9375 12.7501V5.25006C12.9375 4.74756 12.915 4.38756 12.8775 4.08756C12.855 3.93006 12.9 3.77256 12.9975 3.65256C13.095 3.53256 13.2375 3.45756 13.395 3.44256C13.515 3.43506 13.62 3.43506 13.7475 3.43506H14.0025C16.32 3.43506 17.0625 4.17756 17.0625 6.50256V11.4976C17.0625 13.8226 16.32 14.5651 14.0025 14.5651ZM14.0475 4.56006C14.055 4.76256 14.0625 4.98756 14.0625 5.25006V12.7501C14.0625 13.0126 14.055 13.2376 14.0475 13.4401C15.69 13.4326 15.9375 13.1701 15.9375 11.4976V6.50256C15.9375 4.83006 15.69 4.56756 14.0475 4.56006Z" fill="#FBF0DC"/>
</svg>
