<svg width="19" height="20" viewBox="0 0 19 20" fill="none" xmlns="http://www.w3.org/2000/svg">
<path d="M10.6875 15.9375H15.4375V17.125H10.6875V15.9375ZM10.6875 13.5625H17.8125V14.75H10.6875V13.5625ZM10.6875 11.1875H17.8125V12.375H10.6875V11.1875Z" fill="#FBF0DC"/>
<path d="M12.201 7.16009L9.5 1.6875L6.79903 7.16009L0.760002 8.03766L5.13 12.2978L4.09806 18.3125L8.3125 16.0972V14.7553L5.67566 16.1418L6.30028 12.4985L6.40597 11.8828L5.95888 11.4476L3.31194 8.86653L6.97003 8.33512L7.58753 8.24547L7.86422 7.68556L9.5 4.37066L11.1358 7.68556L11.4125 8.24547L12.03 8.33512L16.4558 8.97934L16.625 7.80312L12.201 7.16009Z" fill="#FBF0DC"/>
</svg>
