<svg width="18" height="18" viewBox="0 0 18 18" fill="none" xmlns="http://www.w3.org/2000/svg">
<g clip-path="url(#clip0_135_9087)">
<path d="M5.7285 7.638C5.56339 7.25102 5.31341 6.9061 4.99705 6.62874C4.68068 6.35139 4.30602 6.14869 3.90076 6.03564C3.4955 5.92259 3.07002 5.90208 2.65576 5.97561C2.24151 6.04915 1.84908 6.21487 1.5075 6.4605M12.2715 7.638C12.4366 7.25102 12.6866 6.9061 13.003 6.62874C13.3193 6.35139 13.694 6.14869 14.0992 6.03564C14.5045 5.92259 14.93 5.90208 15.3442 5.97561C15.7585 6.04915 16.1509 6.21487 16.4925 6.4605M1.5075 3.8265C1.5075 4.26092 1.68007 4.67756 1.98726 4.98474C2.29444 5.29193 2.71107 5.4645 3.1455 5.4645C3.57992 5.4645 3.99656 5.29193 4.30374 4.98474C4.61093 4.67756 4.7835 4.26092 4.7835 3.8265C4.7835 3.39208 4.61093 2.97544 4.30374 2.66826C3.99656 2.36107 3.57992 2.1885 3.1455 2.1885C2.71107 2.1885 2.29444 2.36107 1.98726 2.66826C1.68007 2.97544 1.5075 3.39208 1.5075 3.8265ZM13.2165 3.8265C13.2165 4.26092 13.3891 4.67756 13.6963 4.98474C14.0034 5.29193 14.4201 5.4645 14.8545 5.4645C15.2889 5.4645 15.7056 5.29193 16.0127 4.98474C16.3199 4.67756 16.4925 4.26092 16.4925 3.8265C16.4925 3.39208 16.3199 2.97544 16.0127 2.66826C15.7056 2.36107 15.2889 2.1885 14.8545 2.1885C14.4201 2.1885 14.0034 2.36107 13.6963 2.66826C13.3891 2.97544 13.2165 3.39208 13.2165 3.8265ZM6.49725 3.06525C6.49725 3.39392 6.56199 3.71936 6.68776 4.02301C6.81354 4.32666 6.99789 4.60256 7.23029 4.83496C7.46269 5.06736 7.73859 5.25171 8.04224 5.37749C8.34589 5.50326 8.67133 5.568 9 5.568C9.32867 5.568 9.65411 5.50326 9.95776 5.37749C10.2614 5.25171 10.5373 5.06736 10.7697 4.83496C11.0021 4.60256 11.1865 4.32666 11.3122 4.02301C11.438 3.71936 11.5027 3.39392 11.5027 3.06525C11.5027 2.40148 11.2391 1.7649 10.7697 1.29554C10.3004 0.826182 9.66377 0.5625 9 0.5625C8.33623 0.5625 7.69964 0.826182 7.23029 1.29554C6.76093 1.7649 6.49725 2.40148 6.49725 3.06525Z" stroke="#FBF0DC" stroke-width="1.125" stroke-linecap="round" stroke-linejoin="round"/>
<path d="M13.3298 8.59467C12.781 7.99191 12.1124 7.51036 11.3669 7.18086C10.6213 6.85135 9.81514 6.68115 9 6.68115C8.18486 6.68115 7.3787 6.85135 6.63313 7.18086C5.88756 7.51036 5.219 7.99191 4.67025 8.59467M11.9662 10.3917C11.9539 11.1703 11.6359 11.9129 11.0809 12.4591C10.5259 13.0053 9.77835 13.3115 8.99962 13.3115C8.2209 13.3115 7.47339 13.0053 6.91838 12.4591C6.36338 11.9129 6.04538 11.1703 6.033 10.3917" stroke="#FBF0DC" stroke-width="1.125" stroke-linecap="round" stroke-linejoin="round"/>
<path d="M16.0455 10.3887V11.5039L14.7705 11.7589C14.6238 12.3772 14.3773 12.9674 14.0408 13.5064L14.7675 14.5894L13.1925 16.1644L12.1103 15.4377C11.5706 15.7761 10.9793 16.0241 10.3598 16.1719L10.1078 17.4402H7.88775L7.635 16.1719C7.01568 16.024 6.42465 15.776 5.88525 15.4377L4.8 16.1614L3.225 14.5864L3.95175 13.5034C3.61494 12.9645 3.36821 12.3742 3.22125 11.7559L1.94625 11.5009V10.3887" stroke="#FBF0DC" stroke-width="1.125" stroke-linecap="round" stroke-linejoin="round"/>
</g>
<defs>
<clipPath id="clip0_135_9087">
<rect width="18" height="18" fill="white"/>
</clipPath>
</defs>
</svg>
