<svg width="20" height="20" viewBox="0 0 20 20" fill="none" xmlns="http://www.w3.org/2000/svg">
<path d="M15.8333 6.04119H15.625V4.16619C15.6228 3.78009 15.4685 3.41043 15.1954 3.13741C14.9224 2.86439 14.5528 2.71004 14.1667 2.70785C14.1005 2.69634 14.0328 2.69634 13.9667 2.70785L4.04999 6.04119H3.82499L3.68332 6.09119H3.56665L3.43332 6.16619L3.33332 6.30785L3.21665 6.40785L3.12499 6.49119L3.02499 6.61619C2.99843 6.6402 2.97592 6.66834 2.95832 6.69952C2.92798 6.74806 2.90017 6.79812 2.87499 6.84952L2.82499 6.94119C2.80203 7.00112 2.78255 7.06234 2.76665 7.12452C2.77002 7.15498 2.77002 7.18572 2.76665 7.21619C2.75861 7.31046 2.75861 7.40525 2.76665 7.49952V15.8329C2.7684 16.2091 2.91469 16.5703 3.17527 16.8417C3.43584 17.1132 3.79077 17.2741 4.16665 17.2912H15.8333C16.2194 17.289 16.5891 17.1347 16.8621 16.8616C17.1351 16.5886 17.2895 16.219 17.2917 15.8329V7.49952C17.2895 7.11342 17.1351 6.74376 16.8621 6.47074C16.5891 6.19772 16.2194 6.04338 15.8333 6.04119ZM14.2333 3.96619C14.2744 3.98133 14.3099 4.00853 14.3351 4.04423C14.3604 4.07993 14.3743 4.12245 14.375 4.16619V6.04119H8.01665L14.2333 3.96619ZM16.0417 15.8329C16.0417 15.8881 16.0197 15.9411 15.9806 15.9802C15.9416 16.0192 15.8886 16.0412 15.8333 16.0412H4.16665C4.1114 16.0412 4.05841 16.0192 4.01934 15.9802C3.98027 15.9411 3.95832 15.8881 3.95832 15.8329V7.49952C3.95832 7.44427 3.98027 7.39128 4.01934 7.35221C4.05841 7.31314 4.1114 7.29119 4.16665 7.29119H15.8333C15.8886 7.29119 15.9416 7.31314 15.9806 7.35221C16.0197 7.39128 16.0417 7.44427 16.0417 7.49952V15.8329Z" fill="#FBF0DC"/>
<path d="M13.75 12.7083C14.3253 12.7083 14.7916 12.242 14.7916 11.6667C14.7916 11.0914 14.3253 10.625 13.75 10.625C13.1747 10.625 12.7083 11.0914 12.7083 11.6667C12.7083 12.242 13.1747 12.7083 13.75 12.7083Z" fill="#FBF0DC"/>
</svg>
