<svg width="19" height="18" viewBox="0 0 19 18" fill="none" xmlns="http://www.w3.org/2000/svg">
<path d="M9.07959 16.3125C4.84209 16.3125 1.39209 12.8625 1.39209 8.625C1.39209 4.3875 4.84209 0.9375 9.07959 0.9375C13.3171 0.9375 16.7671 4.3875 16.7671 8.625C16.7671 12.8625 13.3171 16.3125 9.07959 16.3125ZM9.07959 2.0625C5.45709 2.0625 2.51709 5.01 2.51709 8.625C2.51709 12.24 5.45709 15.1875 9.07959 15.1875C12.7021 15.1875 15.6421 12.24 15.6421 8.625C15.6421 5.01 12.7021 2.0625 9.07959 2.0625Z" fill="#111111"/>
<path d="M16.9549 17.0626C16.8124 17.0626 16.6699 17.0101 16.5574 16.8976L15.0574 15.3976C14.8399 15.1801 14.8399 14.8201 15.0574 14.6026C15.2749 14.3851 15.6349 14.3851 15.8524 14.6026L17.3524 16.1026C17.5699 16.3201 17.5699 16.6801 17.3524 16.8976C17.2399 17.0101 17.0974 17.0626 16.9549 17.0626Z" fill="#111111"/>
</svg>
